M48
; DRILL file KiCad 10.0.5 date 2026-08-06T14:30:53
; FORMAT={-:-/ absolute / metric / decimal}
; #@! TF.CreationDate,2026-08-06T14:30:53-04:00
; #@! TF.GenerationSoftware,Kicad,Pcbnew,10.0.5
; #@! TF.FileFunction,Plated,1,2,PTH
FMAT,2
METRIC
; #@! TA.AperFunction,Plated,PTH,ViaDrill
T1C0.300
; #@! TA.AperFunction,Plated,PTH,ViaDrill
T2C0.400
; #@! TA.AperFunction,Plated,PTH,ComponentDrill
T3C1.000
%
G90
G05
T1
X105.75Y-112.7
T2
X91.5Y-81.0
X97.0Y-87.0
X100.0Y-85.0
X102.5Y-90.0
T3
X92.38Y-87.3
X92.38Y-89.84
X92.38Y-92.38
X92.38Y-94.92
X92.38Y-97.46
X92.38Y-100.0
X92.38Y-102.54
X92.38Y-105.08
X92.38Y-107.62
X92.38Y-110.16
X92.38Y-112.7
X92.38Y-115.24
X107.62Y-87.3
X107.62Y-89.84
X107.62Y-92.38
X107.62Y-94.92
X107.62Y-97.46
X107.62Y-100.0
X107.62Y-102.54
X107.62Y-105.08
X107.62Y-107.62
X107.62Y-110.16
X107.62Y-112.7
X107.62Y-115.24
M30
