%TF.GenerationSoftware,KiCad,Pcbnew,10.0.5*%
%TF.CreationDate,2026-08-06T14:30:52-04:00*%
%TF.ProjectId,temper-tps43-interposer,74656d70-6572-42d7-9470-7334332d696e,rev?*%
%TF.SameCoordinates,Original*%
%TF.FileFunction,Copper,L1,Top*%
%TF.FilePolarity,Positive*%
%FSLAX46Y46*%
G04 Gerber Fmt 4.6, Leading zero omitted, Abs format (unit mm)*
G04 Created by KiCad (PCBNEW 10.0.5) date 2026-08-06 14:30:52*
%MOMM*%
%LPD*%
G01*
G04 APERTURE LIST*
G04 Aperture macros list*
%AMRoundRect*
0 Rectangle with rounded corners*
0 $1 Rounding radius*
0 $2 $3 $4 $5 $6 $7 $8 $9 X,Y pos of 4 corners*
0 Add a 4 corners polygon primitive as box body*
4,1,4,$2,$3,$4,$5,$6,$7,$8,$9,$2,$3,0*
0 Add four circle primitives for the rounded corners*
1,1,$1+$1,$2,$3*
1,1,$1+$1,$4,$5*
1,1,$1+$1,$6,$7*
1,1,$1+$1,$8,$9*
0 Add four rect primitives between the rounded corners*
20,1,$1+$1,$2,$3,$4,$5,0*
20,1,$1+$1,$4,$5,$6,$7,0*
20,1,$1+$1,$6,$7,$8,$9,0*
20,1,$1+$1,$8,$9,$2,$3,0*%
G04 Aperture macros list end*
%TA.AperFunction,SMDPad,CuDef*%
%ADD10RoundRect,0.250000X-0.450000X0.262500X-0.450000X-0.262500X0.450000X-0.262500X0.450000X0.262500X0*%
%TD*%
%TA.AperFunction,ComponentPad*%
%ADD11R,1.700000X1.700000*%
%TD*%
%TA.AperFunction,ComponentPad*%
%ADD12C,1.700000*%
%TD*%
%TA.AperFunction,SMDPad,CuDef*%
%ADD13R,0.300000X1.300000*%
%TD*%
%TA.AperFunction,SMDPad,CuDef*%
%ADD14R,1.800000X2.200000*%
%TD*%
%TA.AperFunction,ViaPad*%
%ADD15C,0.800000*%
%TD*%
%TA.AperFunction,ViaPad*%
%ADD16C,0.600000*%
%TD*%
%TA.AperFunction,Conductor*%
%ADD17C,0.200000*%
%TD*%
%TA.AperFunction,Conductor*%
%ADD18C,0.500000*%
%TD*%
%TA.AperFunction,Conductor*%
%ADD19C,0.250000*%
%TD*%
G04 APERTURE END LIST*
D10*
%TO.P,R2,1*%
%TO.N,VCC*%
X102500000Y-92087500D03*
%TO.P,R2,2*%
%TO.N,SCL*%
X102500000Y-93912500D03*
%TD*%
D11*
%TO.P,JP2,1*%
%TO.N,unconnected-(JP2-Pin_1-Pad1)*%
X107620000Y-87300000D03*
D12*
%TO.P,JP2,2*%
%TO.N,GND*%
X107620000Y-89840000D03*
%TO.P,JP2,3*%
%TO.N,unconnected-(JP2-Pin_3-Pad3)*%
X107620000Y-92380000D03*
%TO.P,JP2,4*%
%TO.N,VCC*%
X107620000Y-94920000D03*
%TO.P,JP2,5*%
%TO.N,unconnected-(JP2-Pin_5-Pad5)*%
X107620000Y-97460000D03*
%TO.P,JP2,6*%
%TO.N,unconnected-(JP2-Pin_6-Pad6)*%
X107620000Y-100000000D03*
%TO.P,JP2,7*%
%TO.N,unconnected-(JP2-Pin_7-Pad7)*%
X107620000Y-102540000D03*
%TO.P,JP2,8*%
%TO.N,unconnected-(JP2-Pin_8-Pad8)*%
X107620000Y-105080000D03*
%TO.P,JP2,9*%
%TO.N,unconnected-(JP2-Pin_9-Pad9)*%
X107620000Y-107620000D03*
%TO.P,JP2,10*%
%TO.N,unconnected-(JP2-Pin_10-Pad10)*%
X107620000Y-110160000D03*
%TO.P,JP2,11*%
%TO.N,RST*%
X107620000Y-112700000D03*
%TO.P,JP2,12*%
%TO.N,RDY*%
X107620000Y-115240000D03*
%TD*%
D13*
%TO.P,CON1,1*%
%TO.N,SDA*%
X98750000Y-79000000D03*
%TO.P,CON1,2*%
%TO.N,SCL*%
X99250000Y-79000000D03*
%TO.P,CON1,3*%
%TO.N,VCC*%
X99750000Y-79000000D03*
%TO.P,CON1,4*%
%TO.N,GND*%
X100250000Y-79000000D03*
%TO.P,CON1,5*%
%TO.N,RST*%
X100750000Y-79000000D03*
%TO.P,CON1,6*%
%TO.N,RDY*%
X101250000Y-79000000D03*
D14*
%TO.P,CON1,MP*%
%TO.N,GND*%
X96850000Y-82250000D03*
X103150000Y-82250000D03*
%TD*%
D11*
%TO.P,JP1,1*%
%TO.N,unconnected-(JP1-Pin_1-Pad1)*%
X92380000Y-87300000D03*
D12*
%TO.P,JP1,2*%
%TO.N,unconnected-(JP1-Pin_2-Pad2)*%
X92380000Y-89840000D03*
%TO.P,JP1,3*%
%TO.N,GND*%
X92380000Y-92380000D03*
%TO.P,JP1,4*%
X92380000Y-94920000D03*
%TO.P,JP1,5*%
%TO.N,unconnected-(JP1-Pin_5-Pad5)*%
X92380000Y-97460000D03*
%TO.P,JP1,6*%
%TO.N,unconnected-(JP1-Pin_6-Pad6)*%
X92380000Y-100000000D03*
%TO.P,JP1,7*%
%TO.N,unconnected-(JP1-Pin_7-Pad7)*%
X92380000Y-102540000D03*
%TO.P,JP1,8*%
%TO.N,unconnected-(JP1-Pin_8-Pad8)*%
X92380000Y-105080000D03*
%TO.P,JP1,9*%
%TO.N,unconnected-(JP1-Pin_9-Pad9)*%
X92380000Y-107620000D03*
%TO.P,JP1,10*%
%TO.N,unconnected-(JP1-Pin_10-Pad10)*%
X92380000Y-110160000D03*
%TO.P,JP1,11*%
%TO.N,SDA*%
X92380000Y-112700000D03*
%TO.P,JP1,12*%
%TO.N,SCL*%
X92380000Y-115240000D03*
%TD*%
D10*
%TO.P,R1,1*%
%TO.N,VCC*%
X91500000Y-82487500D03*
%TO.P,R1,2*%
%TO.N,SDA*%
X91500000Y-84312500D03*
%TD*%
D15*
%TO.N,GND*%
X100000000Y-85000000D03*
%TO.N,VCC*%
X97000000Y-87000000D03*
X91500000Y-81000000D03*
X102500000Y-90000000D03*
D16*
%TO.N,RST*%
X105750000Y-112700000D03*
%TD*%
%TO.N,GND*%
D17*
X100250000Y-80825000D02*
X105150000Y-80825000D01*
D18*
X100000000Y-82250000D02*
X100000000Y-85000000D01*
X105150000Y-82250000D02*
X103150000Y-82250000D01*
D17*
X100250000Y-79000000D02*
X100250000Y-80825000D01*
D19*
X105150000Y-80825000D02*
X105150000Y-82250000D01*
D18*
X103150000Y-82250000D02*
X96850000Y-82250000D01*
%TO.N,SDA*%
D17*
X93650000Y-84312500D02*
X91500000Y-84312500D01*
X98750000Y-79975000D02*
X93650000Y-79975000D01*
X93650000Y-79975000D02*
X93650000Y-112700000D01*
X93650000Y-112700000D02*
X92380000Y-112700000D01*
X98750000Y-79000000D02*
X98750000Y-79975000D01*
%TO.N,SCL*%
X99250000Y-79000000D02*
X99250000Y-80400000D01*
X94250000Y-80400000D02*
X94250000Y-114000000D01*
X99250000Y-80400000D02*
X94250000Y-80400000D01*
X92380000Y-114000000D02*
X92380000Y-115240000D01*
X94250000Y-93912500D02*
X102500000Y-93912500D01*
X94250000Y-114000000D02*
X92380000Y-114000000D01*
%TO.N,VCC*%
X94850000Y-80825000D02*
X94850000Y-87000000D01*
D18*
X102500000Y-90000000D02*
X102500000Y-92087500D01*
D17*
X94850000Y-87000000D02*
X97000000Y-87000000D01*
X99750000Y-80825000D02*
X94850000Y-80825000D01*
X99750000Y-79000000D02*
X99750000Y-80825000D01*
D18*
X91500000Y-81000000D02*
X91500000Y-82487500D01*
%TO.N,RST*%
D17*
X100750000Y-79000000D02*
X100750000Y-80400000D01*
X105750000Y-80400000D02*
X105750000Y-112700000D01*
X100750000Y-80400000D02*
X105750000Y-80400000D01*
%TO.N,RDY*%
X107620000Y-114000000D02*
X107620000Y-115240000D01*
X101250000Y-79000000D02*
X101250000Y-79975000D01*
X101250000Y-79975000D02*
X106350000Y-79975000D01*
X106350000Y-114000000D02*
X107620000Y-114000000D01*
X106350000Y-79975000D02*
X106350000Y-114000000D01*
%TD*%
M02*
