%TF.GenerationSoftware,KiCad,Pcbnew,10.0.5*%
%TF.CreationDate,2026-08-06T14:30:53-04:00*%
%TF.ProjectId,temper-tps43-interposer,74656d70-6572-42d7-9470-7334332d696e,rev?*%
%TF.SameCoordinates,Original*%
%TF.FileFunction,Drillmap*%
%TF.FilePolarity,Positive*%
%FSLAX45Y45*%
G04 Gerber Fmt 4.5, Leading zero omitted, Abs format (unit mm)*
G04 Created by KiCad (PCBNEW 10.0.5) date 2026-08-06 14:30:53*
%MOMM*%
%LPD*%
G01*
G04 APERTURE LIST*
%ADD10C,0.050000*%
%ADD11C,0.200000*%
%ADD12C,0.100000*%
G04 APERTURE END LIST*
D10*
X9000000Y-7650000D02*
X11000000Y-7650000D01*
X9000000Y-11650000D02*
X9000000Y-7650000D01*
X9365000Y-11520000D02*
X9365000Y-11650000D01*
X9365000Y-11650000D02*
X9000000Y-11650000D01*
X10635000Y-11520000D02*
X9365000Y-11520000D01*
X10635000Y-11650000D02*
X10635000Y-11520000D01*
X11000000Y-7650000D02*
X11000000Y-11650000D01*
X11000000Y-11650000D02*
X10635000Y-11650000D01*
D11*
D12*
X10560000Y-11255000D02*
X10590000Y-11285000D01*
X10590000Y-11255000D02*
X10560000Y-11285000D01*
X9170000Y-8100000D02*
G75*
G02*
X9130000Y-8100000I-20000J0D01*
G01*
X9130000Y-8100000D02*
G75*
G02*
X9170000Y-8100000I20000J0D01*
G01*
X9720000Y-8700000D02*
G75*
G02*
X9680000Y-8700000I-20000J0D01*
G01*
X9680000Y-8700000D02*
G75*
G02*
X9720000Y-8700000I20000J0D01*
G01*
X10020000Y-8500000D02*
G75*
G02*
X9980000Y-8500000I-20000J0D01*
G01*
X9980000Y-8500000D02*
G75*
G02*
X10020000Y-8500000I20000J0D01*
G01*
X10270000Y-9000000D02*
G75*
G02*
X10230000Y-9000000I-20000J0D01*
G01*
X10230000Y-9000000D02*
G75*
G02*
X10270000Y-9000000I20000J0D01*
G01*
X9238000Y-8680000D02*
X9238000Y-8780000D01*
X9188000Y-8730000D02*
X9288000Y-8730000D01*
X9238000Y-8934000D02*
X9238000Y-9034000D01*
X9188000Y-8984000D02*
X9288000Y-8984000D01*
X9238000Y-9188000D02*
X9238000Y-9288000D01*
X9188000Y-9238000D02*
X9288000Y-9238000D01*
X9238000Y-9442000D02*
X9238000Y-9542000D01*
X9188000Y-9492000D02*
X9288000Y-9492000D01*
X9238000Y-9696000D02*
X9238000Y-9796000D01*
X9188000Y-9746000D02*
X9288000Y-9746000D01*
X9238000Y-9950000D02*
X9238000Y-10050000D01*
X9188000Y-10000000D02*
X9288000Y-10000000D01*
X9238000Y-10204000D02*
X9238000Y-10304000D01*
X9188000Y-10254000D02*
X9288000Y-10254000D01*
X9238000Y-10458000D02*
X9238000Y-10558000D01*
X9188000Y-10508000D02*
X9288000Y-10508000D01*
X9238000Y-10712000D02*
X9238000Y-10812000D01*
X9188000Y-10762000D02*
X9288000Y-10762000D01*
X9238000Y-10966000D02*
X9238000Y-11066000D01*
X9188000Y-11016000D02*
X9288000Y-11016000D01*
X9238000Y-11220000D02*
X9238000Y-11320000D01*
X9188000Y-11270000D02*
X9288000Y-11270000D01*
X9238000Y-11474000D02*
X9238000Y-11574000D01*
X9188000Y-11524000D02*
X9288000Y-11524000D01*
X10762000Y-8680000D02*
X10762000Y-8780000D01*
X10712000Y-8730000D02*
X10812000Y-8730000D01*
X10762000Y-8934000D02*
X10762000Y-9034000D01*
X10712000Y-8984000D02*
X10812000Y-8984000D01*
X10762000Y-9188000D02*
X10762000Y-9288000D01*
X10712000Y-9238000D02*
X10812000Y-9238000D01*
X10762000Y-9442000D02*
X10762000Y-9542000D01*
X10712000Y-9492000D02*
X10812000Y-9492000D01*
X10762000Y-9696000D02*
X10762000Y-9796000D01*
X10712000Y-9746000D02*
X10812000Y-9746000D01*
X10762000Y-9950000D02*
X10762000Y-10050000D01*
X10712000Y-10000000D02*
X10812000Y-10000000D01*
X10762000Y-10204000D02*
X10762000Y-10304000D01*
X10712000Y-10254000D02*
X10812000Y-10254000D01*
X10762000Y-10458000D02*
X10762000Y-10558000D01*
X10712000Y-10508000D02*
X10812000Y-10508000D01*
X10762000Y-10712000D02*
X10762000Y-10812000D01*
X10712000Y-10762000D02*
X10812000Y-10762000D01*
X10762000Y-10966000D02*
X10762000Y-11066000D01*
X10712000Y-11016000D02*
X10812000Y-11016000D01*
X10762000Y-11220000D02*
X10762000Y-11320000D01*
X10712000Y-11270000D02*
X10812000Y-11270000D01*
X10762000Y-11474000D02*
X10762000Y-11574000D01*
X10712000Y-11524000D02*
X10812000Y-11524000D01*
D11*
X9258277Y-11963984D02*
X9258277Y-11763984D01*
X9258277Y-11763984D02*
X9305896Y-11763984D01*
X9305896Y-11763984D02*
X9334467Y-11773508D01*
X9334467Y-11773508D02*
X9353515Y-11792555D01*
X9353515Y-11792555D02*
X9363039Y-11811603D01*
X9363039Y-11811603D02*
X9372563Y-11849698D01*
X9372563Y-11849698D02*
X9372563Y-11878269D01*
X9372563Y-11878269D02*
X9363039Y-11916365D01*
X9363039Y-11916365D02*
X9353515Y-11935412D01*
X9353515Y-11935412D02*
X9334467Y-11954460D01*
X9334467Y-11954460D02*
X9305896Y-11963984D01*
X9305896Y-11963984D02*
X9258277Y-11963984D01*
X9458277Y-11963984D02*
X9458277Y-11830650D01*
X9458277Y-11868746D02*
X9467801Y-11849698D01*
X9467801Y-11849698D02*
X9477324Y-11840174D01*
X9477324Y-11840174D02*
X9496372Y-11830650D01*
X9496372Y-11830650D02*
X9515420Y-11830650D01*
X9582086Y-11963984D02*
X9582086Y-11830650D01*
X9582086Y-11763984D02*
X9572563Y-11773508D01*
X9572563Y-11773508D02*
X9582086Y-11783031D01*
X9582086Y-11783031D02*
X9591610Y-11773508D01*
X9591610Y-11773508D02*
X9582086Y-11763984D01*
X9582086Y-11763984D02*
X9582086Y-11783031D01*
X9705896Y-11963984D02*
X9686848Y-11954460D01*
X9686848Y-11954460D02*
X9677324Y-11935412D01*
X9677324Y-11935412D02*
X9677324Y-11763984D01*
X9810658Y-11963984D02*
X9791610Y-11954460D01*
X9791610Y-11954460D02*
X9782086Y-11935412D01*
X9782086Y-11935412D02*
X9782086Y-11763984D01*
X10039229Y-11963984D02*
X10039229Y-11763984D01*
X10039229Y-11763984D02*
X10105896Y-11906841D01*
X10105896Y-11906841D02*
X10172563Y-11763984D01*
X10172563Y-11763984D02*
X10172563Y-11963984D01*
X10353515Y-11963984D02*
X10353515Y-11859222D01*
X10353515Y-11859222D02*
X10343991Y-11840174D01*
X10343991Y-11840174D02*
X10324944Y-11830650D01*
X10324944Y-11830650D02*
X10286848Y-11830650D01*
X10286848Y-11830650D02*
X10267801Y-11840174D01*
X10353515Y-11954460D02*
X10334467Y-11963984D01*
X10334467Y-11963984D02*
X10286848Y-11963984D01*
X10286848Y-11963984D02*
X10267801Y-11954460D01*
X10267801Y-11954460D02*
X10258277Y-11935412D01*
X10258277Y-11935412D02*
X10258277Y-11916365D01*
X10258277Y-11916365D02*
X10267801Y-11897317D01*
X10267801Y-11897317D02*
X10286848Y-11887793D01*
X10286848Y-11887793D02*
X10334467Y-11887793D01*
X10334467Y-11887793D02*
X10353515Y-11878269D01*
X10448753Y-11830650D02*
X10448753Y-12030650D01*
X10448753Y-11840174D02*
X10467801Y-11830650D01*
X10467801Y-11830650D02*
X10505896Y-11830650D01*
X10505896Y-11830650D02*
X10524944Y-11840174D01*
X10524944Y-11840174D02*
X10534467Y-11849698D01*
X10534467Y-11849698D02*
X10543991Y-11868746D01*
X10543991Y-11868746D02*
X10543991Y-11925888D01*
X10543991Y-11925888D02*
X10534467Y-11944936D01*
X10534467Y-11944936D02*
X10524944Y-11954460D01*
X10524944Y-11954460D02*
X10505896Y-11963984D01*
X10505896Y-11963984D02*
X10467801Y-11963984D01*
X10467801Y-11963984D02*
X10448753Y-11954460D01*
X10629705Y-11944936D02*
X10639229Y-11954460D01*
X10639229Y-11954460D02*
X10629705Y-11963984D01*
X10629705Y-11963984D02*
X10620182Y-11954460D01*
X10620182Y-11954460D02*
X10629705Y-11944936D01*
X10629705Y-11944936D02*
X10629705Y-11963984D01*
X10629705Y-11840174D02*
X10639229Y-11849698D01*
X10639229Y-11849698D02*
X10629705Y-11859222D01*
X10629705Y-11859222D02*
X10620182Y-11849698D01*
X10620182Y-11849698D02*
X10629705Y-11840174D01*
X10629705Y-11840174D02*
X10629705Y-11859222D01*
D12*
X8967500Y-12277500D02*
X8997500Y-12307500D01*
X8997500Y-12277500D02*
X8967500Y-12307500D01*
D11*
X9296372Y-12183984D02*
X9315420Y-12183984D01*
X9315420Y-12183984D02*
X9334467Y-12193508D01*
X9334467Y-12193508D02*
X9343991Y-12203031D01*
X9343991Y-12203031D02*
X9353515Y-12222079D01*
X9353515Y-12222079D02*
X9363039Y-12260174D01*
X9363039Y-12260174D02*
X9363039Y-12307793D01*
X9363039Y-12307793D02*
X9353515Y-12345888D01*
X9353515Y-12345888D02*
X9343991Y-12364936D01*
X9343991Y-12364936D02*
X9334467Y-12374460D01*
X9334467Y-12374460D02*
X9315420Y-12383984D01*
X9315420Y-12383984D02*
X9296372Y-12383984D01*
X9296372Y-12383984D02*
X9277324Y-12374460D01*
X9277324Y-12374460D02*
X9267801Y-12364936D01*
X9267801Y-12364936D02*
X9258277Y-12345888D01*
X9258277Y-12345888D02*
X9248753Y-12307793D01*
X9248753Y-12307793D02*
X9248753Y-12260174D01*
X9248753Y-12260174D02*
X9258277Y-12222079D01*
X9258277Y-12222079D02*
X9267801Y-12203031D01*
X9267801Y-12203031D02*
X9277324Y-12193508D01*
X9277324Y-12193508D02*
X9296372Y-12183984D01*
X9448753Y-12364936D02*
X9458277Y-12374460D01*
X9458277Y-12374460D02*
X9448753Y-12383984D01*
X9448753Y-12383984D02*
X9439229Y-12374460D01*
X9439229Y-12374460D02*
X9448753Y-12364936D01*
X9448753Y-12364936D02*
X9448753Y-12383984D01*
X9524944Y-12183984D02*
X9648753Y-12183984D01*
X9648753Y-12183984D02*
X9582086Y-12260174D01*
X9582086Y-12260174D02*
X9610658Y-12260174D01*
X9610658Y-12260174D02*
X9629705Y-12269698D01*
X9629705Y-12269698D02*
X9639229Y-12279222D01*
X9639229Y-12279222D02*
X9648753Y-12298269D01*
X9648753Y-12298269D02*
X9648753Y-12345888D01*
X9648753Y-12345888D02*
X9639229Y-12364936D01*
X9639229Y-12364936D02*
X9629705Y-12374460D01*
X9629705Y-12374460D02*
X9610658Y-12383984D01*
X9610658Y-12383984D02*
X9553515Y-12383984D01*
X9553515Y-12383984D02*
X9534467Y-12374460D01*
X9534467Y-12374460D02*
X9524944Y-12364936D01*
X9772563Y-12183984D02*
X9791610Y-12183984D01*
X9791610Y-12183984D02*
X9810658Y-12193508D01*
X9810658Y-12193508D02*
X9820182Y-12203031D01*
X9820182Y-12203031D02*
X9829705Y-12222079D01*
X9829705Y-12222079D02*
X9839229Y-12260174D01*
X9839229Y-12260174D02*
X9839229Y-12307793D01*
X9839229Y-12307793D02*
X9829705Y-12345888D01*
X9829705Y-12345888D02*
X9820182Y-12364936D01*
X9820182Y-12364936D02*
X9810658Y-12374460D01*
X9810658Y-12374460D02*
X9791610Y-12383984D01*
X9791610Y-12383984D02*
X9772563Y-12383984D01*
X9772563Y-12383984D02*
X9753515Y-12374460D01*
X9753515Y-12374460D02*
X9743991Y-12364936D01*
X9743991Y-12364936D02*
X9734467Y-12345888D01*
X9734467Y-12345888D02*
X9724944Y-12307793D01*
X9724944Y-12307793D02*
X9724944Y-12260174D01*
X9724944Y-12260174D02*
X9734467Y-12222079D01*
X9734467Y-12222079D02*
X9743991Y-12203031D01*
X9743991Y-12203031D02*
X9753515Y-12193508D01*
X9753515Y-12193508D02*
X9772563Y-12183984D01*
X9963039Y-12183984D02*
X9982086Y-12183984D01*
X9982086Y-12183984D02*
X10001134Y-12193508D01*
X10001134Y-12193508D02*
X10010658Y-12203031D01*
X10010658Y-12203031D02*
X10020182Y-12222079D01*
X10020182Y-12222079D02*
X10029705Y-12260174D01*
X10029705Y-12260174D02*
X10029705Y-12307793D01*
X10029705Y-12307793D02*
X10020182Y-12345888D01*
X10020182Y-12345888D02*
X10010658Y-12364936D01*
X10010658Y-12364936D02*
X10001134Y-12374460D01*
X10001134Y-12374460D02*
X9982086Y-12383984D01*
X9982086Y-12383984D02*
X9963039Y-12383984D01*
X9963039Y-12383984D02*
X9943991Y-12374460D01*
X9943991Y-12374460D02*
X9934467Y-12364936D01*
X9934467Y-12364936D02*
X9924944Y-12345888D01*
X9924944Y-12345888D02*
X9915420Y-12307793D01*
X9915420Y-12307793D02*
X9915420Y-12260174D01*
X9915420Y-12260174D02*
X9924944Y-12222079D01*
X9924944Y-12222079D02*
X9934467Y-12203031D01*
X9934467Y-12203031D02*
X9943991Y-12193508D01*
X9943991Y-12193508D02*
X9963039Y-12183984D01*
X10115420Y-12383984D02*
X10115420Y-12250650D01*
X10115420Y-12269698D02*
X10124944Y-12260174D01*
X10124944Y-12260174D02*
X10143991Y-12250650D01*
X10143991Y-12250650D02*
X10172563Y-12250650D01*
X10172563Y-12250650D02*
X10191610Y-12260174D01*
X10191610Y-12260174D02*
X10201134Y-12279222D01*
X10201134Y-12279222D02*
X10201134Y-12383984D01*
X10201134Y-12279222D02*
X10210658Y-12260174D01*
X10210658Y-12260174D02*
X10229705Y-12250650D01*
X10229705Y-12250650D02*
X10258277Y-12250650D01*
X10258277Y-12250650D02*
X10277325Y-12260174D01*
X10277325Y-12260174D02*
X10286848Y-12279222D01*
X10286848Y-12279222D02*
X10286848Y-12383984D01*
X10382086Y-12383984D02*
X10382086Y-12250650D01*
X10382086Y-12269698D02*
X10391610Y-12260174D01*
X10391610Y-12260174D02*
X10410658Y-12250650D01*
X10410658Y-12250650D02*
X10439229Y-12250650D01*
X10439229Y-12250650D02*
X10458277Y-12260174D01*
X10458277Y-12260174D02*
X10467801Y-12279222D01*
X10467801Y-12279222D02*
X10467801Y-12383984D01*
X10467801Y-12279222D02*
X10477325Y-12260174D01*
X10477325Y-12260174D02*
X10496372Y-12250650D01*
X10496372Y-12250650D02*
X10524944Y-12250650D01*
X10524944Y-12250650D02*
X10543991Y-12260174D01*
X10543991Y-12260174D02*
X10553515Y-12279222D01*
X10553515Y-12279222D02*
X10553515Y-12383984D01*
X10943991Y-12174460D02*
X10772563Y-12431603D01*
X11201134Y-12183984D02*
X11220182Y-12183984D01*
X11220182Y-12183984D02*
X11239229Y-12193508D01*
X11239229Y-12193508D02*
X11248753Y-12203031D01*
X11248753Y-12203031D02*
X11258277Y-12222079D01*
X11258277Y-12222079D02*
X11267801Y-12260174D01*
X11267801Y-12260174D02*
X11267801Y-12307793D01*
X11267801Y-12307793D02*
X11258277Y-12345888D01*
X11258277Y-12345888D02*
X11248753Y-12364936D01*
X11248753Y-12364936D02*
X11239229Y-12374460D01*
X11239229Y-12374460D02*
X11220182Y-12383984D01*
X11220182Y-12383984D02*
X11201134Y-12383984D01*
X11201134Y-12383984D02*
X11182087Y-12374460D01*
X11182087Y-12374460D02*
X11172563Y-12364936D01*
X11172563Y-12364936D02*
X11163039Y-12345888D01*
X11163039Y-12345888D02*
X11153515Y-12307793D01*
X11153515Y-12307793D02*
X11153515Y-12260174D01*
X11153515Y-12260174D02*
X11163039Y-12222079D01*
X11163039Y-12222079D02*
X11172563Y-12203031D01*
X11172563Y-12203031D02*
X11182087Y-12193508D01*
X11182087Y-12193508D02*
X11201134Y-12183984D01*
X11353515Y-12364936D02*
X11363039Y-12374460D01*
X11363039Y-12374460D02*
X11353515Y-12383984D01*
X11353515Y-12383984D02*
X11343991Y-12374460D01*
X11343991Y-12374460D02*
X11353515Y-12364936D01*
X11353515Y-12364936D02*
X11353515Y-12383984D01*
X11486848Y-12183984D02*
X11505896Y-12183984D01*
X11505896Y-12183984D02*
X11524944Y-12193508D01*
X11524944Y-12193508D02*
X11534467Y-12203031D01*
X11534467Y-12203031D02*
X11543991Y-12222079D01*
X11543991Y-12222079D02*
X11553515Y-12260174D01*
X11553515Y-12260174D02*
X11553515Y-12307793D01*
X11553515Y-12307793D02*
X11543991Y-12345888D01*
X11543991Y-12345888D02*
X11534467Y-12364936D01*
X11534467Y-12364936D02*
X11524944Y-12374460D01*
X11524944Y-12374460D02*
X11505896Y-12383984D01*
X11505896Y-12383984D02*
X11486848Y-12383984D01*
X11486848Y-12383984D02*
X11467801Y-12374460D01*
X11467801Y-12374460D02*
X11458277Y-12364936D01*
X11458277Y-12364936D02*
X11448753Y-12345888D01*
X11448753Y-12345888D02*
X11439229Y-12307793D01*
X11439229Y-12307793D02*
X11439229Y-12260174D01*
X11439229Y-12260174D02*
X11448753Y-12222079D01*
X11448753Y-12222079D02*
X11458277Y-12203031D01*
X11458277Y-12203031D02*
X11467801Y-12193508D01*
X11467801Y-12193508D02*
X11486848Y-12183984D01*
X11743991Y-12383984D02*
X11629706Y-12383984D01*
X11686848Y-12383984D02*
X11686848Y-12183984D01*
X11686848Y-12183984D02*
X11667801Y-12212555D01*
X11667801Y-12212555D02*
X11648753Y-12231603D01*
X11648753Y-12231603D02*
X11629706Y-12241127D01*
X11934467Y-12383984D02*
X11820182Y-12383984D01*
X11877325Y-12383984D02*
X11877325Y-12183984D01*
X11877325Y-12183984D02*
X11858277Y-12212555D01*
X11858277Y-12212555D02*
X11839229Y-12231603D01*
X11839229Y-12231603D02*
X11820182Y-12241127D01*
X12048753Y-12269698D02*
X12029706Y-12260174D01*
X12029706Y-12260174D02*
X12020182Y-12250650D01*
X12020182Y-12250650D02*
X12010658Y-12231603D01*
X12010658Y-12231603D02*
X12010658Y-12222079D01*
X12010658Y-12222079D02*
X12020182Y-12203031D01*
X12020182Y-12203031D02*
X12029706Y-12193508D01*
X12029706Y-12193508D02*
X12048753Y-12183984D01*
X12048753Y-12183984D02*
X12086848Y-12183984D01*
X12086848Y-12183984D02*
X12105896Y-12193508D01*
X12105896Y-12193508D02*
X12115420Y-12203031D01*
X12115420Y-12203031D02*
X12124944Y-12222079D01*
X12124944Y-12222079D02*
X12124944Y-12231603D01*
X12124944Y-12231603D02*
X12115420Y-12250650D01*
X12115420Y-12250650D02*
X12105896Y-12260174D01*
X12105896Y-12260174D02*
X12086848Y-12269698D01*
X12086848Y-12269698D02*
X12048753Y-12269698D01*
X12048753Y-12269698D02*
X12029706Y-12279222D01*
X12029706Y-12279222D02*
X12020182Y-12288746D01*
X12020182Y-12288746D02*
X12010658Y-12307793D01*
X12010658Y-12307793D02*
X12010658Y-12345888D01*
X12010658Y-12345888D02*
X12020182Y-12364936D01*
X12020182Y-12364936D02*
X12029706Y-12374460D01*
X12029706Y-12374460D02*
X12048753Y-12383984D01*
X12048753Y-12383984D02*
X12086848Y-12383984D01*
X12086848Y-12383984D02*
X12105896Y-12374460D01*
X12105896Y-12374460D02*
X12115420Y-12364936D01*
X12115420Y-12364936D02*
X12124944Y-12345888D01*
X12124944Y-12345888D02*
X12124944Y-12307793D01*
X12124944Y-12307793D02*
X12115420Y-12288746D01*
X12115420Y-12288746D02*
X12105896Y-12279222D01*
X12105896Y-12279222D02*
X12086848Y-12269698D01*
X12201134Y-12183984D02*
X12201134Y-12222079D01*
X12277325Y-12183984D02*
X12277325Y-12222079D01*
X12572563Y-12460174D02*
X12563039Y-12450650D01*
X12563039Y-12450650D02*
X12543991Y-12422079D01*
X12543991Y-12422079D02*
X12534468Y-12403031D01*
X12534468Y-12403031D02*
X12524944Y-12374460D01*
X12524944Y-12374460D02*
X12515420Y-12326841D01*
X12515420Y-12326841D02*
X12515420Y-12288746D01*
X12515420Y-12288746D02*
X12524944Y-12241127D01*
X12524944Y-12241127D02*
X12534468Y-12212555D01*
X12534468Y-12212555D02*
X12543991Y-12193508D01*
X12543991Y-12193508D02*
X12563039Y-12164936D01*
X12563039Y-12164936D02*
X12572563Y-12155412D01*
X12753515Y-12383984D02*
X12639229Y-12383984D01*
X12696372Y-12383984D02*
X12696372Y-12183984D01*
X12696372Y-12183984D02*
X12677325Y-12212555D01*
X12677325Y-12212555D02*
X12658277Y-12231603D01*
X12658277Y-12231603D02*
X12639229Y-12241127D01*
X12991610Y-12383984D02*
X12991610Y-12183984D01*
X13077325Y-12383984D02*
X13077325Y-12279222D01*
X13077325Y-12279222D02*
X13067801Y-12260174D01*
X13067801Y-12260174D02*
X13048753Y-12250650D01*
X13048753Y-12250650D02*
X13020182Y-12250650D01*
X13020182Y-12250650D02*
X13001134Y-12260174D01*
X13001134Y-12260174D02*
X12991610Y-12269698D01*
X13201134Y-12383984D02*
X13182087Y-12374460D01*
X13182087Y-12374460D02*
X13172563Y-12364936D01*
X13172563Y-12364936D02*
X13163039Y-12345888D01*
X13163039Y-12345888D02*
X13163039Y-12288746D01*
X13163039Y-12288746D02*
X13172563Y-12269698D01*
X13172563Y-12269698D02*
X13182087Y-12260174D01*
X13182087Y-12260174D02*
X13201134Y-12250650D01*
X13201134Y-12250650D02*
X13229706Y-12250650D01*
X13229706Y-12250650D02*
X13248753Y-12260174D01*
X13248753Y-12260174D02*
X13258277Y-12269698D01*
X13258277Y-12269698D02*
X13267801Y-12288746D01*
X13267801Y-12288746D02*
X13267801Y-12345888D01*
X13267801Y-12345888D02*
X13258277Y-12364936D01*
X13258277Y-12364936D02*
X13248753Y-12374460D01*
X13248753Y-12374460D02*
X13229706Y-12383984D01*
X13229706Y-12383984D02*
X13201134Y-12383984D01*
X13382087Y-12383984D02*
X13363039Y-12374460D01*
X13363039Y-12374460D02*
X13353515Y-12355412D01*
X13353515Y-12355412D02*
X13353515Y-12183984D01*
X13534468Y-12374460D02*
X13515420Y-12383984D01*
X13515420Y-12383984D02*
X13477325Y-12383984D01*
X13477325Y-12383984D02*
X13458277Y-12374460D01*
X13458277Y-12374460D02*
X13448753Y-12355412D01*
X13448753Y-12355412D02*
X13448753Y-12279222D01*
X13448753Y-12279222D02*
X13458277Y-12260174D01*
X13458277Y-12260174D02*
X13477325Y-12250650D01*
X13477325Y-12250650D02*
X13515420Y-12250650D01*
X13515420Y-12250650D02*
X13534468Y-12260174D01*
X13534468Y-12260174D02*
X13543991Y-12279222D01*
X13543991Y-12279222D02*
X13543991Y-12298269D01*
X13543991Y-12298269D02*
X13448753Y-12317317D01*
X13610658Y-12460174D02*
X13620182Y-12450650D01*
X13620182Y-12450650D02*
X13639230Y-12422079D01*
X13639230Y-12422079D02*
X13648753Y-12403031D01*
X13648753Y-12403031D02*
X13658277Y-12374460D01*
X13658277Y-12374460D02*
X13667801Y-12326841D01*
X13667801Y-12326841D02*
X13667801Y-12288746D01*
X13667801Y-12288746D02*
X13658277Y-12241127D01*
X13658277Y-12241127D02*
X13648753Y-12212555D01*
X13648753Y-12212555D02*
X13639230Y-12193508D01*
X13639230Y-12193508D02*
X13620182Y-12164936D01*
X13620182Y-12164936D02*
X13610658Y-12155412D01*
D12*
X8997500Y-12556500D02*
G75*
G02*
X8957500Y-12556500I-20000J0D01*
G01*
X8957500Y-12556500D02*
G75*
G02*
X8997500Y-12556500I20000J0D01*
G01*
D11*
X9296372Y-12447984D02*
X9315420Y-12447984D01*
X9315420Y-12447984D02*
X9334467Y-12457508D01*
X9334467Y-12457508D02*
X9343991Y-12467031D01*
X9343991Y-12467031D02*
X9353515Y-12486079D01*
X9353515Y-12486079D02*
X9363039Y-12524174D01*
X9363039Y-12524174D02*
X9363039Y-12571793D01*
X9363039Y-12571793D02*
X9353515Y-12609888D01*
X9353515Y-12609888D02*
X9343991Y-12628936D01*
X9343991Y-12628936D02*
X9334467Y-12638460D01*
X9334467Y-12638460D02*
X9315420Y-12647984D01*
X9315420Y-12647984D02*
X9296372Y-12647984D01*
X9296372Y-12647984D02*
X9277324Y-12638460D01*
X9277324Y-12638460D02*
X9267801Y-12628936D01*
X9267801Y-12628936D02*
X9258277Y-12609888D01*
X9258277Y-12609888D02*
X9248753Y-12571793D01*
X9248753Y-12571793D02*
X9248753Y-12524174D01*
X9248753Y-12524174D02*
X9258277Y-12486079D01*
X9258277Y-12486079D02*
X9267801Y-12467031D01*
X9267801Y-12467031D02*
X9277324Y-12457508D01*
X9277324Y-12457508D02*
X9296372Y-12447984D01*
X9448753Y-12628936D02*
X9458277Y-12638460D01*
X9458277Y-12638460D02*
X9448753Y-12647984D01*
X9448753Y-12647984D02*
X9439229Y-12638460D01*
X9439229Y-12638460D02*
X9448753Y-12628936D01*
X9448753Y-12628936D02*
X9448753Y-12647984D01*
X9629705Y-12514650D02*
X9629705Y-12647984D01*
X9582086Y-12438460D02*
X9534467Y-12581317D01*
X9534467Y-12581317D02*
X9658277Y-12581317D01*
X9772563Y-12447984D02*
X9791610Y-12447984D01*
X9791610Y-12447984D02*
X9810658Y-12457508D01*
X9810658Y-12457508D02*
X9820182Y-12467031D01*
X9820182Y-12467031D02*
X9829705Y-12486079D01*
X9829705Y-12486079D02*
X9839229Y-12524174D01*
X9839229Y-12524174D02*
X9839229Y-12571793D01*
X9839229Y-12571793D02*
X9829705Y-12609888D01*
X9829705Y-12609888D02*
X9820182Y-12628936D01*
X9820182Y-12628936D02*
X9810658Y-12638460D01*
X9810658Y-12638460D02*
X9791610Y-12647984D01*
X9791610Y-12647984D02*
X9772563Y-12647984D01*
X9772563Y-12647984D02*
X9753515Y-12638460D01*
X9753515Y-12638460D02*
X9743991Y-12628936D01*
X9743991Y-12628936D02*
X9734467Y-12609888D01*
X9734467Y-12609888D02*
X9724944Y-12571793D01*
X9724944Y-12571793D02*
X9724944Y-12524174D01*
X9724944Y-12524174D02*
X9734467Y-12486079D01*
X9734467Y-12486079D02*
X9743991Y-12467031D01*
X9743991Y-12467031D02*
X9753515Y-12457508D01*
X9753515Y-12457508D02*
X9772563Y-12447984D01*
X9963039Y-12447984D02*
X9982086Y-12447984D01*
X9982086Y-12447984D02*
X10001134Y-12457508D01*
X10001134Y-12457508D02*
X10010658Y-12467031D01*
X10010658Y-12467031D02*
X10020182Y-12486079D01*
X10020182Y-12486079D02*
X10029705Y-12524174D01*
X10029705Y-12524174D02*
X10029705Y-12571793D01*
X10029705Y-12571793D02*
X10020182Y-12609888D01*
X10020182Y-12609888D02*
X10010658Y-12628936D01*
X10010658Y-12628936D02*
X10001134Y-12638460D01*
X10001134Y-12638460D02*
X9982086Y-12647984D01*
X9982086Y-12647984D02*
X9963039Y-12647984D01*
X9963039Y-12647984D02*
X9943991Y-12638460D01*
X9943991Y-12638460D02*
X9934467Y-12628936D01*
X9934467Y-12628936D02*
X9924944Y-12609888D01*
X9924944Y-12609888D02*
X9915420Y-12571793D01*
X9915420Y-12571793D02*
X9915420Y-12524174D01*
X9915420Y-12524174D02*
X9924944Y-12486079D01*
X9924944Y-12486079D02*
X9934467Y-12467031D01*
X9934467Y-12467031D02*
X9943991Y-12457508D01*
X9943991Y-12457508D02*
X9963039Y-12447984D01*
X10115420Y-12647984D02*
X10115420Y-12514650D01*
X10115420Y-12533698D02*
X10124944Y-12524174D01*
X10124944Y-12524174D02*
X10143991Y-12514650D01*
X10143991Y-12514650D02*
X10172563Y-12514650D01*
X10172563Y-12514650D02*
X10191610Y-12524174D01*
X10191610Y-12524174D02*
X10201134Y-12543222D01*
X10201134Y-12543222D02*
X10201134Y-12647984D01*
X10201134Y-12543222D02*
X10210658Y-12524174D01*
X10210658Y-12524174D02*
X10229705Y-12514650D01*
X10229705Y-12514650D02*
X10258277Y-12514650D01*
X10258277Y-12514650D02*
X10277325Y-12524174D01*
X10277325Y-12524174D02*
X10286848Y-12543222D01*
X10286848Y-12543222D02*
X10286848Y-12647984D01*
X10382086Y-12647984D02*
X10382086Y-12514650D01*
X10382086Y-12533698D02*
X10391610Y-12524174D01*
X10391610Y-12524174D02*
X10410658Y-12514650D01*
X10410658Y-12514650D02*
X10439229Y-12514650D01*
X10439229Y-12514650D02*
X10458277Y-12524174D01*
X10458277Y-12524174D02*
X10467801Y-12543222D01*
X10467801Y-12543222D02*
X10467801Y-12647984D01*
X10467801Y-12543222D02*
X10477325Y-12524174D01*
X10477325Y-12524174D02*
X10496372Y-12514650D01*
X10496372Y-12514650D02*
X10524944Y-12514650D01*
X10524944Y-12514650D02*
X10543991Y-12524174D01*
X10543991Y-12524174D02*
X10553515Y-12543222D01*
X10553515Y-12543222D02*
X10553515Y-12647984D01*
X10943991Y-12438460D02*
X10772563Y-12695603D01*
X11201134Y-12447984D02*
X11220182Y-12447984D01*
X11220182Y-12447984D02*
X11239229Y-12457508D01*
X11239229Y-12457508D02*
X11248753Y-12467031D01*
X11248753Y-12467031D02*
X11258277Y-12486079D01*
X11258277Y-12486079D02*
X11267801Y-12524174D01*
X11267801Y-12524174D02*
X11267801Y-12571793D01*
X11267801Y-12571793D02*
X11258277Y-12609888D01*
X11258277Y-12609888D02*
X11248753Y-12628936D01*
X11248753Y-12628936D02*
X11239229Y-12638460D01*
X11239229Y-12638460D02*
X11220182Y-12647984D01*
X11220182Y-12647984D02*
X11201134Y-12647984D01*
X11201134Y-12647984D02*
X11182087Y-12638460D01*
X11182087Y-12638460D02*
X11172563Y-12628936D01*
X11172563Y-12628936D02*
X11163039Y-12609888D01*
X11163039Y-12609888D02*
X11153515Y-12571793D01*
X11153515Y-12571793D02*
X11153515Y-12524174D01*
X11153515Y-12524174D02*
X11163039Y-12486079D01*
X11163039Y-12486079D02*
X11172563Y-12467031D01*
X11172563Y-12467031D02*
X11182087Y-12457508D01*
X11182087Y-12457508D02*
X11201134Y-12447984D01*
X11353515Y-12628936D02*
X11363039Y-12638460D01*
X11363039Y-12638460D02*
X11353515Y-12647984D01*
X11353515Y-12647984D02*
X11343991Y-12638460D01*
X11343991Y-12638460D02*
X11353515Y-12628936D01*
X11353515Y-12628936D02*
X11353515Y-12647984D01*
X11486848Y-12447984D02*
X11505896Y-12447984D01*
X11505896Y-12447984D02*
X11524944Y-12457508D01*
X11524944Y-12457508D02*
X11534467Y-12467031D01*
X11534467Y-12467031D02*
X11543991Y-12486079D01*
X11543991Y-12486079D02*
X11553515Y-12524174D01*
X11553515Y-12524174D02*
X11553515Y-12571793D01*
X11553515Y-12571793D02*
X11543991Y-12609888D01*
X11543991Y-12609888D02*
X11534467Y-12628936D01*
X11534467Y-12628936D02*
X11524944Y-12638460D01*
X11524944Y-12638460D02*
X11505896Y-12647984D01*
X11505896Y-12647984D02*
X11486848Y-12647984D01*
X11486848Y-12647984D02*
X11467801Y-12638460D01*
X11467801Y-12638460D02*
X11458277Y-12628936D01*
X11458277Y-12628936D02*
X11448753Y-12609888D01*
X11448753Y-12609888D02*
X11439229Y-12571793D01*
X11439229Y-12571793D02*
X11439229Y-12524174D01*
X11439229Y-12524174D02*
X11448753Y-12486079D01*
X11448753Y-12486079D02*
X11458277Y-12467031D01*
X11458277Y-12467031D02*
X11467801Y-12457508D01*
X11467801Y-12457508D02*
X11486848Y-12447984D01*
X11743991Y-12647984D02*
X11629706Y-12647984D01*
X11686848Y-12647984D02*
X11686848Y-12447984D01*
X11686848Y-12447984D02*
X11667801Y-12476555D01*
X11667801Y-12476555D02*
X11648753Y-12495603D01*
X11648753Y-12495603D02*
X11629706Y-12505127D01*
X11924944Y-12447984D02*
X11829706Y-12447984D01*
X11829706Y-12447984D02*
X11820182Y-12543222D01*
X11820182Y-12543222D02*
X11829706Y-12533698D01*
X11829706Y-12533698D02*
X11848753Y-12524174D01*
X11848753Y-12524174D02*
X11896372Y-12524174D01*
X11896372Y-12524174D02*
X11915420Y-12533698D01*
X11915420Y-12533698D02*
X11924944Y-12543222D01*
X11924944Y-12543222D02*
X11934467Y-12562269D01*
X11934467Y-12562269D02*
X11934467Y-12609888D01*
X11934467Y-12609888D02*
X11924944Y-12628936D01*
X11924944Y-12628936D02*
X11915420Y-12638460D01*
X11915420Y-12638460D02*
X11896372Y-12647984D01*
X11896372Y-12647984D02*
X11848753Y-12647984D01*
X11848753Y-12647984D02*
X11829706Y-12638460D01*
X11829706Y-12638460D02*
X11820182Y-12628936D01*
X12001134Y-12447984D02*
X12134467Y-12447984D01*
X12134467Y-12447984D02*
X12048753Y-12647984D01*
X12201134Y-12447984D02*
X12201134Y-12486079D01*
X12277325Y-12447984D02*
X12277325Y-12486079D01*
X12572563Y-12724174D02*
X12563039Y-12714650D01*
X12563039Y-12714650D02*
X12543991Y-12686079D01*
X12543991Y-12686079D02*
X12534468Y-12667031D01*
X12534468Y-12667031D02*
X12524944Y-12638460D01*
X12524944Y-12638460D02*
X12515420Y-12590841D01*
X12515420Y-12590841D02*
X12515420Y-12552746D01*
X12515420Y-12552746D02*
X12524944Y-12505127D01*
X12524944Y-12505127D02*
X12534468Y-12476555D01*
X12534468Y-12476555D02*
X12543991Y-12457508D01*
X12543991Y-12457508D02*
X12563039Y-12428936D01*
X12563039Y-12428936D02*
X12572563Y-12419412D01*
X12734468Y-12514650D02*
X12734468Y-12647984D01*
X12686848Y-12438460D02*
X12639229Y-12581317D01*
X12639229Y-12581317D02*
X12763039Y-12581317D01*
X12991610Y-12647984D02*
X12991610Y-12447984D01*
X13077325Y-12647984D02*
X13077325Y-12543222D01*
X13077325Y-12543222D02*
X13067801Y-12524174D01*
X13067801Y-12524174D02*
X13048753Y-12514650D01*
X13048753Y-12514650D02*
X13020182Y-12514650D01*
X13020182Y-12514650D02*
X13001134Y-12524174D01*
X13001134Y-12524174D02*
X12991610Y-12533698D01*
X13201134Y-12647984D02*
X13182087Y-12638460D01*
X13182087Y-12638460D02*
X13172563Y-12628936D01*
X13172563Y-12628936D02*
X13163039Y-12609888D01*
X13163039Y-12609888D02*
X13163039Y-12552746D01*
X13163039Y-12552746D02*
X13172563Y-12533698D01*
X13172563Y-12533698D02*
X13182087Y-12524174D01*
X13182087Y-12524174D02*
X13201134Y-12514650D01*
X13201134Y-12514650D02*
X13229706Y-12514650D01*
X13229706Y-12514650D02*
X13248753Y-12524174D01*
X13248753Y-12524174D02*
X13258277Y-12533698D01*
X13258277Y-12533698D02*
X13267801Y-12552746D01*
X13267801Y-12552746D02*
X13267801Y-12609888D01*
X13267801Y-12609888D02*
X13258277Y-12628936D01*
X13258277Y-12628936D02*
X13248753Y-12638460D01*
X13248753Y-12638460D02*
X13229706Y-12647984D01*
X13229706Y-12647984D02*
X13201134Y-12647984D01*
X13382087Y-12647984D02*
X13363039Y-12638460D01*
X13363039Y-12638460D02*
X13353515Y-12619412D01*
X13353515Y-12619412D02*
X13353515Y-12447984D01*
X13534468Y-12638460D02*
X13515420Y-12647984D01*
X13515420Y-12647984D02*
X13477325Y-12647984D01*
X13477325Y-12647984D02*
X13458277Y-12638460D01*
X13458277Y-12638460D02*
X13448753Y-12619412D01*
X13448753Y-12619412D02*
X13448753Y-12543222D01*
X13448753Y-12543222D02*
X13458277Y-12524174D01*
X13458277Y-12524174D02*
X13477325Y-12514650D01*
X13477325Y-12514650D02*
X13515420Y-12514650D01*
X13515420Y-12514650D02*
X13534468Y-12524174D01*
X13534468Y-12524174D02*
X13543991Y-12543222D01*
X13543991Y-12543222D02*
X13543991Y-12562269D01*
X13543991Y-12562269D02*
X13448753Y-12581317D01*
X13620182Y-12638460D02*
X13639230Y-12647984D01*
X13639230Y-12647984D02*
X13677325Y-12647984D01*
X13677325Y-12647984D02*
X13696372Y-12638460D01*
X13696372Y-12638460D02*
X13705896Y-12619412D01*
X13705896Y-12619412D02*
X13705896Y-12609888D01*
X13705896Y-12609888D02*
X13696372Y-12590841D01*
X13696372Y-12590841D02*
X13677325Y-12581317D01*
X13677325Y-12581317D02*
X13648753Y-12581317D01*
X13648753Y-12581317D02*
X13629706Y-12571793D01*
X13629706Y-12571793D02*
X13620182Y-12552746D01*
X13620182Y-12552746D02*
X13620182Y-12543222D01*
X13620182Y-12543222D02*
X13629706Y-12524174D01*
X13629706Y-12524174D02*
X13648753Y-12514650D01*
X13648753Y-12514650D02*
X13677325Y-12514650D01*
X13677325Y-12514650D02*
X13696372Y-12524174D01*
X13772563Y-12724174D02*
X13782087Y-12714650D01*
X13782087Y-12714650D02*
X13801134Y-12686079D01*
X13801134Y-12686079D02*
X13810658Y-12667031D01*
X13810658Y-12667031D02*
X13820182Y-12638460D01*
X13820182Y-12638460D02*
X13829706Y-12590841D01*
X13829706Y-12590841D02*
X13829706Y-12552746D01*
X13829706Y-12552746D02*
X13820182Y-12505127D01*
X13820182Y-12505127D02*
X13810658Y-12476555D01*
X13810658Y-12476555D02*
X13801134Y-12457508D01*
X13801134Y-12457508D02*
X13782087Y-12428936D01*
X13782087Y-12428936D02*
X13772563Y-12419412D01*
D12*
X8947500Y-12770500D02*
X8947500Y-12870500D01*
X8897500Y-12820500D02*
X8997500Y-12820500D01*
D11*
X9363039Y-12911984D02*
X9248753Y-12911984D01*
X9305896Y-12911984D02*
X9305896Y-12711984D01*
X9305896Y-12711984D02*
X9286848Y-12740555D01*
X9286848Y-12740555D02*
X9267801Y-12759603D01*
X9267801Y-12759603D02*
X9248753Y-12769127D01*
X9448753Y-12892936D02*
X9458277Y-12902460D01*
X9458277Y-12902460D02*
X9448753Y-12911984D01*
X9448753Y-12911984D02*
X9439229Y-12902460D01*
X9439229Y-12902460D02*
X9448753Y-12892936D01*
X9448753Y-12892936D02*
X9448753Y-12911984D01*
X9582086Y-12711984D02*
X9601134Y-12711984D01*
X9601134Y-12711984D02*
X9620182Y-12721508D01*
X9620182Y-12721508D02*
X9629705Y-12731031D01*
X9629705Y-12731031D02*
X9639229Y-12750079D01*
X9639229Y-12750079D02*
X9648753Y-12788174D01*
X9648753Y-12788174D02*
X9648753Y-12835793D01*
X9648753Y-12835793D02*
X9639229Y-12873888D01*
X9639229Y-12873888D02*
X9629705Y-12892936D01*
X9629705Y-12892936D02*
X9620182Y-12902460D01*
X9620182Y-12902460D02*
X9601134Y-12911984D01*
X9601134Y-12911984D02*
X9582086Y-12911984D01*
X9582086Y-12911984D02*
X9563039Y-12902460D01*
X9563039Y-12902460D02*
X9553515Y-12892936D01*
X9553515Y-12892936D02*
X9543991Y-12873888D01*
X9543991Y-12873888D02*
X9534467Y-12835793D01*
X9534467Y-12835793D02*
X9534467Y-12788174D01*
X9534467Y-12788174D02*
X9543991Y-12750079D01*
X9543991Y-12750079D02*
X9553515Y-12731031D01*
X9553515Y-12731031D02*
X9563039Y-12721508D01*
X9563039Y-12721508D02*
X9582086Y-12711984D01*
X9772563Y-12711984D02*
X9791610Y-12711984D01*
X9791610Y-12711984D02*
X9810658Y-12721508D01*
X9810658Y-12721508D02*
X9820182Y-12731031D01*
X9820182Y-12731031D02*
X9829705Y-12750079D01*
X9829705Y-12750079D02*
X9839229Y-12788174D01*
X9839229Y-12788174D02*
X9839229Y-12835793D01*
X9839229Y-12835793D02*
X9829705Y-12873888D01*
X9829705Y-12873888D02*
X9820182Y-12892936D01*
X9820182Y-12892936D02*
X9810658Y-12902460D01*
X9810658Y-12902460D02*
X9791610Y-12911984D01*
X9791610Y-12911984D02*
X9772563Y-12911984D01*
X9772563Y-12911984D02*
X9753515Y-12902460D01*
X9753515Y-12902460D02*
X9743991Y-12892936D01*
X9743991Y-12892936D02*
X9734467Y-12873888D01*
X9734467Y-12873888D02*
X9724944Y-12835793D01*
X9724944Y-12835793D02*
X9724944Y-12788174D01*
X9724944Y-12788174D02*
X9734467Y-12750079D01*
X9734467Y-12750079D02*
X9743991Y-12731031D01*
X9743991Y-12731031D02*
X9753515Y-12721508D01*
X9753515Y-12721508D02*
X9772563Y-12711984D01*
X9963039Y-12711984D02*
X9982086Y-12711984D01*
X9982086Y-12711984D02*
X10001134Y-12721508D01*
X10001134Y-12721508D02*
X10010658Y-12731031D01*
X10010658Y-12731031D02*
X10020182Y-12750079D01*
X10020182Y-12750079D02*
X10029705Y-12788174D01*
X10029705Y-12788174D02*
X10029705Y-12835793D01*
X10029705Y-12835793D02*
X10020182Y-12873888D01*
X10020182Y-12873888D02*
X10010658Y-12892936D01*
X10010658Y-12892936D02*
X10001134Y-12902460D01*
X10001134Y-12902460D02*
X9982086Y-12911984D01*
X9982086Y-12911984D02*
X9963039Y-12911984D01*
X9963039Y-12911984D02*
X9943991Y-12902460D01*
X9943991Y-12902460D02*
X9934467Y-12892936D01*
X9934467Y-12892936D02*
X9924944Y-12873888D01*
X9924944Y-12873888D02*
X9915420Y-12835793D01*
X9915420Y-12835793D02*
X9915420Y-12788174D01*
X9915420Y-12788174D02*
X9924944Y-12750079D01*
X9924944Y-12750079D02*
X9934467Y-12731031D01*
X9934467Y-12731031D02*
X9943991Y-12721508D01*
X9943991Y-12721508D02*
X9963039Y-12711984D01*
X10115420Y-12911984D02*
X10115420Y-12778650D01*
X10115420Y-12797698D02*
X10124944Y-12788174D01*
X10124944Y-12788174D02*
X10143991Y-12778650D01*
X10143991Y-12778650D02*
X10172563Y-12778650D01*
X10172563Y-12778650D02*
X10191610Y-12788174D01*
X10191610Y-12788174D02*
X10201134Y-12807222D01*
X10201134Y-12807222D02*
X10201134Y-12911984D01*
X10201134Y-12807222D02*
X10210658Y-12788174D01*
X10210658Y-12788174D02*
X10229705Y-12778650D01*
X10229705Y-12778650D02*
X10258277Y-12778650D01*
X10258277Y-12778650D02*
X10277325Y-12788174D01*
X10277325Y-12788174D02*
X10286848Y-12807222D01*
X10286848Y-12807222D02*
X10286848Y-12911984D01*
X10382086Y-12911984D02*
X10382086Y-12778650D01*
X10382086Y-12797698D02*
X10391610Y-12788174D01*
X10391610Y-12788174D02*
X10410658Y-12778650D01*
X10410658Y-12778650D02*
X10439229Y-12778650D01*
X10439229Y-12778650D02*
X10458277Y-12788174D01*
X10458277Y-12788174D02*
X10467801Y-12807222D01*
X10467801Y-12807222D02*
X10467801Y-12911984D01*
X10467801Y-12807222D02*
X10477325Y-12788174D01*
X10477325Y-12788174D02*
X10496372Y-12778650D01*
X10496372Y-12778650D02*
X10524944Y-12778650D01*
X10524944Y-12778650D02*
X10543991Y-12788174D01*
X10543991Y-12788174D02*
X10553515Y-12807222D01*
X10553515Y-12807222D02*
X10553515Y-12911984D01*
X10943991Y-12702460D02*
X10772563Y-12959603D01*
X11201134Y-12711984D02*
X11220182Y-12711984D01*
X11220182Y-12711984D02*
X11239229Y-12721508D01*
X11239229Y-12721508D02*
X11248753Y-12731031D01*
X11248753Y-12731031D02*
X11258277Y-12750079D01*
X11258277Y-12750079D02*
X11267801Y-12788174D01*
X11267801Y-12788174D02*
X11267801Y-12835793D01*
X11267801Y-12835793D02*
X11258277Y-12873888D01*
X11258277Y-12873888D02*
X11248753Y-12892936D01*
X11248753Y-12892936D02*
X11239229Y-12902460D01*
X11239229Y-12902460D02*
X11220182Y-12911984D01*
X11220182Y-12911984D02*
X11201134Y-12911984D01*
X11201134Y-12911984D02*
X11182087Y-12902460D01*
X11182087Y-12902460D02*
X11172563Y-12892936D01*
X11172563Y-12892936D02*
X11163039Y-12873888D01*
X11163039Y-12873888D02*
X11153515Y-12835793D01*
X11153515Y-12835793D02*
X11153515Y-12788174D01*
X11153515Y-12788174D02*
X11163039Y-12750079D01*
X11163039Y-12750079D02*
X11172563Y-12731031D01*
X11172563Y-12731031D02*
X11182087Y-12721508D01*
X11182087Y-12721508D02*
X11201134Y-12711984D01*
X11353515Y-12892936D02*
X11363039Y-12902460D01*
X11363039Y-12902460D02*
X11353515Y-12911984D01*
X11353515Y-12911984D02*
X11343991Y-12902460D01*
X11343991Y-12902460D02*
X11353515Y-12892936D01*
X11353515Y-12892936D02*
X11353515Y-12911984D01*
X11486848Y-12711984D02*
X11505896Y-12711984D01*
X11505896Y-12711984D02*
X11524944Y-12721508D01*
X11524944Y-12721508D02*
X11534467Y-12731031D01*
X11534467Y-12731031D02*
X11543991Y-12750079D01*
X11543991Y-12750079D02*
X11553515Y-12788174D01*
X11553515Y-12788174D02*
X11553515Y-12835793D01*
X11553515Y-12835793D02*
X11543991Y-12873888D01*
X11543991Y-12873888D02*
X11534467Y-12892936D01*
X11534467Y-12892936D02*
X11524944Y-12902460D01*
X11524944Y-12902460D02*
X11505896Y-12911984D01*
X11505896Y-12911984D02*
X11486848Y-12911984D01*
X11486848Y-12911984D02*
X11467801Y-12902460D01*
X11467801Y-12902460D02*
X11458277Y-12892936D01*
X11458277Y-12892936D02*
X11448753Y-12873888D01*
X11448753Y-12873888D02*
X11439229Y-12835793D01*
X11439229Y-12835793D02*
X11439229Y-12788174D01*
X11439229Y-12788174D02*
X11448753Y-12750079D01*
X11448753Y-12750079D02*
X11458277Y-12731031D01*
X11458277Y-12731031D02*
X11467801Y-12721508D01*
X11467801Y-12721508D02*
X11486848Y-12711984D01*
X11620182Y-12711984D02*
X11743991Y-12711984D01*
X11743991Y-12711984D02*
X11677325Y-12788174D01*
X11677325Y-12788174D02*
X11705896Y-12788174D01*
X11705896Y-12788174D02*
X11724944Y-12797698D01*
X11724944Y-12797698D02*
X11734467Y-12807222D01*
X11734467Y-12807222D02*
X11743991Y-12826269D01*
X11743991Y-12826269D02*
X11743991Y-12873888D01*
X11743991Y-12873888D02*
X11734467Y-12892936D01*
X11734467Y-12892936D02*
X11724944Y-12902460D01*
X11724944Y-12902460D02*
X11705896Y-12911984D01*
X11705896Y-12911984D02*
X11648753Y-12911984D01*
X11648753Y-12911984D02*
X11629706Y-12902460D01*
X11629706Y-12902460D02*
X11620182Y-12892936D01*
X11839229Y-12911984D02*
X11877325Y-12911984D01*
X11877325Y-12911984D02*
X11896372Y-12902460D01*
X11896372Y-12902460D02*
X11905896Y-12892936D01*
X11905896Y-12892936D02*
X11924944Y-12864365D01*
X11924944Y-12864365D02*
X11934467Y-12826269D01*
X11934467Y-12826269D02*
X11934467Y-12750079D01*
X11934467Y-12750079D02*
X11924944Y-12731031D01*
X11924944Y-12731031D02*
X11915420Y-12721508D01*
X11915420Y-12721508D02*
X11896372Y-12711984D01*
X11896372Y-12711984D02*
X11858277Y-12711984D01*
X11858277Y-12711984D02*
X11839229Y-12721508D01*
X11839229Y-12721508D02*
X11829706Y-12731031D01*
X11829706Y-12731031D02*
X11820182Y-12750079D01*
X11820182Y-12750079D02*
X11820182Y-12797698D01*
X11820182Y-12797698D02*
X11829706Y-12816746D01*
X11829706Y-12816746D02*
X11839229Y-12826269D01*
X11839229Y-12826269D02*
X11858277Y-12835793D01*
X11858277Y-12835793D02*
X11896372Y-12835793D01*
X11896372Y-12835793D02*
X11915420Y-12826269D01*
X11915420Y-12826269D02*
X11924944Y-12816746D01*
X11924944Y-12816746D02*
X11934467Y-12797698D01*
X12105896Y-12778650D02*
X12105896Y-12911984D01*
X12058277Y-12702460D02*
X12010658Y-12845317D01*
X12010658Y-12845317D02*
X12134467Y-12845317D01*
X12201134Y-12711984D02*
X12201134Y-12750079D01*
X12277325Y-12711984D02*
X12277325Y-12750079D01*
X12572563Y-12988174D02*
X12563039Y-12978650D01*
X12563039Y-12978650D02*
X12543991Y-12950079D01*
X12543991Y-12950079D02*
X12534468Y-12931031D01*
X12534468Y-12931031D02*
X12524944Y-12902460D01*
X12524944Y-12902460D02*
X12515420Y-12854841D01*
X12515420Y-12854841D02*
X12515420Y-12816746D01*
X12515420Y-12816746D02*
X12524944Y-12769127D01*
X12524944Y-12769127D02*
X12534468Y-12740555D01*
X12534468Y-12740555D02*
X12543991Y-12721508D01*
X12543991Y-12721508D02*
X12563039Y-12692936D01*
X12563039Y-12692936D02*
X12572563Y-12683412D01*
X12639229Y-12731031D02*
X12648753Y-12721508D01*
X12648753Y-12721508D02*
X12667801Y-12711984D01*
X12667801Y-12711984D02*
X12715420Y-12711984D01*
X12715420Y-12711984D02*
X12734468Y-12721508D01*
X12734468Y-12721508D02*
X12743991Y-12731031D01*
X12743991Y-12731031D02*
X12753515Y-12750079D01*
X12753515Y-12750079D02*
X12753515Y-12769127D01*
X12753515Y-12769127D02*
X12743991Y-12797698D01*
X12743991Y-12797698D02*
X12629706Y-12911984D01*
X12629706Y-12911984D02*
X12753515Y-12911984D01*
X12924944Y-12778650D02*
X12924944Y-12911984D01*
X12877325Y-12702460D02*
X12829706Y-12845317D01*
X12829706Y-12845317D02*
X12953515Y-12845317D01*
X13182087Y-12911984D02*
X13182087Y-12711984D01*
X13267801Y-12911984D02*
X13267801Y-12807222D01*
X13267801Y-12807222D02*
X13258277Y-12788174D01*
X13258277Y-12788174D02*
X13239230Y-12778650D01*
X13239230Y-12778650D02*
X13210658Y-12778650D01*
X13210658Y-12778650D02*
X13191610Y-12788174D01*
X13191610Y-12788174D02*
X13182087Y-12797698D01*
X13391610Y-12911984D02*
X13372563Y-12902460D01*
X13372563Y-12902460D02*
X13363039Y-12892936D01*
X13363039Y-12892936D02*
X13353515Y-12873888D01*
X13353515Y-12873888D02*
X13353515Y-12816746D01*
X13353515Y-12816746D02*
X13363039Y-12797698D01*
X13363039Y-12797698D02*
X13372563Y-12788174D01*
X13372563Y-12788174D02*
X13391610Y-12778650D01*
X13391610Y-12778650D02*
X13420182Y-12778650D01*
X13420182Y-12778650D02*
X13439230Y-12788174D01*
X13439230Y-12788174D02*
X13448753Y-12797698D01*
X13448753Y-12797698D02*
X13458277Y-12816746D01*
X13458277Y-12816746D02*
X13458277Y-12873888D01*
X13458277Y-12873888D02*
X13448753Y-12892936D01*
X13448753Y-12892936D02*
X13439230Y-12902460D01*
X13439230Y-12902460D02*
X13420182Y-12911984D01*
X13420182Y-12911984D02*
X13391610Y-12911984D01*
X13572563Y-12911984D02*
X13553515Y-12902460D01*
X13553515Y-12902460D02*
X13543991Y-12883412D01*
X13543991Y-12883412D02*
X13543991Y-12711984D01*
X13724944Y-12902460D02*
X13705896Y-12911984D01*
X13705896Y-12911984D02*
X13667801Y-12911984D01*
X13667801Y-12911984D02*
X13648753Y-12902460D01*
X13648753Y-12902460D02*
X13639230Y-12883412D01*
X13639230Y-12883412D02*
X13639230Y-12807222D01*
X13639230Y-12807222D02*
X13648753Y-12788174D01*
X13648753Y-12788174D02*
X13667801Y-12778650D01*
X13667801Y-12778650D02*
X13705896Y-12778650D01*
X13705896Y-12778650D02*
X13724944Y-12788174D01*
X13724944Y-12788174D02*
X13734468Y-12807222D01*
X13734468Y-12807222D02*
X13734468Y-12826269D01*
X13734468Y-12826269D02*
X13639230Y-12845317D01*
X13810658Y-12902460D02*
X13829706Y-12911984D01*
X13829706Y-12911984D02*
X13867801Y-12911984D01*
X13867801Y-12911984D02*
X13886849Y-12902460D01*
X13886849Y-12902460D02*
X13896372Y-12883412D01*
X13896372Y-12883412D02*
X13896372Y-12873888D01*
X13896372Y-12873888D02*
X13886849Y-12854841D01*
X13886849Y-12854841D02*
X13867801Y-12845317D01*
X13867801Y-12845317D02*
X13839230Y-12845317D01*
X13839230Y-12845317D02*
X13820182Y-12835793D01*
X13820182Y-12835793D02*
X13810658Y-12816746D01*
X13810658Y-12816746D02*
X13810658Y-12807222D01*
X13810658Y-12807222D02*
X13820182Y-12788174D01*
X13820182Y-12788174D02*
X13839230Y-12778650D01*
X13839230Y-12778650D02*
X13867801Y-12778650D01*
X13867801Y-12778650D02*
X13886849Y-12788174D01*
X13963039Y-12988174D02*
X13972563Y-12978650D01*
X13972563Y-12978650D02*
X13991611Y-12950079D01*
X13991611Y-12950079D02*
X14001134Y-12931031D01*
X14001134Y-12931031D02*
X14010658Y-12902460D01*
X14010658Y-12902460D02*
X14020182Y-12854841D01*
X14020182Y-12854841D02*
X14020182Y-12816746D01*
X14020182Y-12816746D02*
X14010658Y-12769127D01*
X14010658Y-12769127D02*
X14001134Y-12740555D01*
X14001134Y-12740555D02*
X13991611Y-12721508D01*
X13991611Y-12721508D02*
X13972563Y-12692936D01*
X13972563Y-12692936D02*
X13963039Y-12683412D01*
M02*
