%TF.GenerationSoftware,KiCad,Pcbnew,10.0.5*%
%TF.CreationDate,2026-08-06T14:30:52-04:00*%
%TF.ProjectId,temper-tps43-interposer,74656d70-6572-42d7-9470-7334332d696e,rev?*%
%TF.SameCoordinates,Original*%
%TF.FileFunction,Copper,L2,Bot*%
%TF.FilePolarity,Positive*%
%FSLAX46Y46*%
G04 Gerber Fmt 4.6, Leading zero omitted, Abs format (unit mm)*
G04 Created by KiCad (PCBNEW 10.0.5) date 2026-08-06 14:30:52*
%MOMM*%
%LPD*%
G01*
G04 APERTURE LIST*
%TA.AperFunction,ComponentPad*%
%ADD10R,1.700000X1.700000*%
%TD*%
%TA.AperFunction,ComponentPad*%
%ADD11C,1.700000*%
%TD*%
%TA.AperFunction,ViaPad*%
%ADD12C,0.800000*%
%TD*%
%TA.AperFunction,ViaPad*%
%ADD13C,0.600000*%
%TD*%
%TA.AperFunction,Conductor*%
%ADD14C,0.500000*%
%TD*%
%TA.AperFunction,Conductor*%
%ADD15C,0.200000*%
%TD*%
G04 APERTURE END LIST*
D10*
%TO.P,JP2,1*%
%TO.N,unconnected-(JP2-Pin_1-Pad1)*%
X107620000Y-87300000D03*
D11*
%TO.P,JP2,2*%
%TO.N,GND*%
X107620000Y-89840000D03*
%TO.P,JP2,3*%
%TO.N,unconnected-(JP2-Pin_3-Pad3)*%
X107620000Y-92380000D03*
%TO.P,JP2,4*%
%TO.N,VCC*%
X107620000Y-94920000D03*
%TO.P,JP2,5*%
%TO.N,unconnected-(JP2-Pin_5-Pad5)*%
X107620000Y-97460000D03*
%TO.P,JP2,6*%
%TO.N,unconnected-(JP2-Pin_6-Pad6)*%
X107620000Y-100000000D03*
%TO.P,JP2,7*%
%TO.N,unconnected-(JP2-Pin_7-Pad7)*%
X107620000Y-102540000D03*
%TO.P,JP2,8*%
%TO.N,unconnected-(JP2-Pin_8-Pad8)*%
X107620000Y-105080000D03*
%TO.P,JP2,9*%
%TO.N,unconnected-(JP2-Pin_9-Pad9)*%
X107620000Y-107620000D03*
%TO.P,JP2,10*%
%TO.N,unconnected-(JP2-Pin_10-Pad10)*%
X107620000Y-110160000D03*
%TO.P,JP2,11*%
%TO.N,RST*%
X107620000Y-112700000D03*
%TO.P,JP2,12*%
%TO.N,RDY*%
X107620000Y-115240000D03*
%TD*%
D10*
%TO.P,JP1,1*%
%TO.N,unconnected-(JP1-Pin_1-Pad1)*%
X92380000Y-87300000D03*
D11*
%TO.P,JP1,2*%
%TO.N,unconnected-(JP1-Pin_2-Pad2)*%
X92380000Y-89840000D03*
%TO.P,JP1,3*%
%TO.N,GND*%
X92380000Y-92380000D03*
%TO.P,JP1,4*%
X92380000Y-94920000D03*
%TO.P,JP1,5*%
%TO.N,unconnected-(JP1-Pin_5-Pad5)*%
X92380000Y-97460000D03*
%TO.P,JP1,6*%
%TO.N,unconnected-(JP1-Pin_6-Pad6)*%
X92380000Y-100000000D03*
%TO.P,JP1,7*%
%TO.N,unconnected-(JP1-Pin_7-Pad7)*%
X92380000Y-102540000D03*
%TO.P,JP1,8*%
%TO.N,unconnected-(JP1-Pin_8-Pad8)*%
X92380000Y-105080000D03*
%TO.P,JP1,9*%
%TO.N,unconnected-(JP1-Pin_9-Pad9)*%
X92380000Y-107620000D03*
%TO.P,JP1,10*%
%TO.N,unconnected-(JP1-Pin_10-Pad10)*%
X92380000Y-110160000D03*
%TO.P,JP1,11*%
%TO.N,SDA*%
X92380000Y-112700000D03*
%TO.P,JP1,12*%
%TO.N,SCL*%
X92380000Y-115240000D03*
%TD*%
D12*
%TO.N,GND*%
X100000000Y-85000000D03*
%TO.N,VCC*%
X97000000Y-87000000D03*
X91500000Y-81000000D03*
X102500000Y-90000000D03*
D13*
%TO.N,RST*%
X105750000Y-112700000D03*
%TD*%
%TO.N,VCC*%
D14*
X102500000Y-90000000D02*
X107620000Y-94920000D01*
X97000000Y-87000000D02*
X91500000Y-81000000D01*
X97000000Y-87000000D02*
X102500000Y-90000000D01*
%TO.N,RST*%
D15*
X105750000Y-112700000D02*
X107620000Y-112700000D01*
%TD*%
%TA.AperFunction,Conductor*%
%TO.N,GND*%
G36*
X109425500Y-77019962D02*
G01*
X109480038Y-77074500D01*
X109500000Y-77149000D01*
X109500000Y-114551000D01*
X109480038Y-114625500D01*
X109425500Y-114680038D01*
X109351000Y-114700000D01*
X108725684Y-114700000D01*
X108651184Y-114680038D01*
X108605140Y-114638580D01*
X108541509Y-114551000D01*
X108497553Y-114490499D01*
X108369501Y-114362447D01*
X108222994Y-114256004D01*
X108061639Y-114173789D01*
X107889408Y-114117828D01*
X107885223Y-114117166D01*
X107814762Y-114085796D01*
X107769427Y-114023398D01*
X107761364Y-113946693D01*
X107792734Y-113876232D01*
X107855132Y-113830897D01*
X107885223Y-113822834D01*
X107885362Y-113822811D01*
X107889409Y-113822171D01*
X108061639Y-113766211D01*
X108222994Y-113683996D01*
X108369501Y-113577553D01*
X108497553Y-113449501D01*
X108603996Y-113302994D01*
X108686211Y-113141639D01*
X108742171Y-112969409D01*
X108770500Y-112790546D01*
X108770500Y-112609454D01*
X108742171Y-112430591D01*
X108686211Y-112258361D01*
X108603996Y-112097006D01*
X108497553Y-111950499D01*
X108369501Y-111822447D01*
X108222994Y-111716004D01*
X108061639Y-111633789D01*
X107889408Y-111577828D01*
X107885223Y-111577166D01*
X107814762Y-111545796D01*
X107769427Y-111483398D01*
X107761364Y-111406693D01*
X107792734Y-111336232D01*
X107855132Y-111290897D01*
X107885223Y-111282834D01*
X107885362Y-111282811D01*
X107889409Y-111282171D01*
X108061639Y-111226211D01*
X108222994Y-111143996D01*
X108369501Y-111037553D01*
X108497553Y-110909501D01*
X108603996Y-110762994D01*
X108686211Y-110601639D01*
X108742171Y-110429409D01*
X108770500Y-110250546D01*
X108770500Y-110069454D01*
X108742171Y-109890591D01*
X108686211Y-109718361D01*
X108603996Y-109557006D01*
X108497553Y-109410499D01*
X108369501Y-109282447D01*
X108222994Y-109176004D01*
X108061639Y-109093789D01*
X107889408Y-109037828D01*
X107885223Y-109037166D01*
X107814762Y-109005796D01*
X107769427Y-108943398D01*
X107761364Y-108866693D01*
X107792734Y-108796232D01*
X107855132Y-108750897D01*
X107885223Y-108742834D01*
X107885362Y-108742811D01*
X107889409Y-108742171D01*
X108061639Y-108686211D01*
X108222994Y-108603996D01*
X108369501Y-108497553D01*
X108497553Y-108369501D01*
X108603996Y-108222994D01*
X108686211Y-108061639D01*
X108742171Y-107889409D01*
X108770500Y-107710546D01*
X108770500Y-107529454D01*
X108742171Y-107350591D01*
X108686211Y-107178361D01*
X108603996Y-107017006D01*
X108497553Y-106870499D01*
X108369501Y-106742447D01*
X108222994Y-106636004D01*
X108061639Y-106553789D01*
X107889408Y-106497828D01*
X107885223Y-106497166D01*
X107814762Y-106465796D01*
X107769427Y-106403398D01*
X107761364Y-106326693D01*
X107792734Y-106256232D01*
X107855132Y-106210897D01*
X107885223Y-106202834D01*
X107885362Y-106202811D01*
X107889409Y-106202171D01*
X108061639Y-106146211D01*
X108222994Y-106063996D01*
X108369501Y-105957553D01*
X108497553Y-105829501D01*
X108603996Y-105682994D01*
X108686211Y-105521639D01*
X108742171Y-105349409D01*
X108770500Y-105170546D01*
X108770500Y-104989454D01*
X108742171Y-104810591D01*
X108686211Y-104638361D01*
X108603996Y-104477006D01*
X108497553Y-104330499D01*
X108369501Y-104202447D01*
X108222994Y-104096004D01*
X108061639Y-104013789D01*
X107889408Y-103957828D01*
X107885223Y-103957166D01*
X107814762Y-103925796D01*
X107769427Y-103863398D01*
X107761364Y-103786693D01*
X107792734Y-103716232D01*
X107855132Y-103670897D01*
X107885223Y-103662834D01*
X107885362Y-103662811D01*
X107889409Y-103662171D01*
X108061639Y-103606211D01*
X108222994Y-103523996D01*
X108369501Y-103417553D01*
X108497553Y-103289501D01*
X108603996Y-103142994D01*
X108686211Y-102981639D01*
X108742171Y-102809409D01*
X108770500Y-102630546D01*
X108770500Y-102449454D01*
X108742171Y-102270591D01*
X108686211Y-102098361D01*
X108603996Y-101937006D01*
X108497553Y-101790499D01*
X108369501Y-101662447D01*
X108222994Y-101556004D01*
X108061639Y-101473789D01*
X107889408Y-101417828D01*
X107885223Y-101417166D01*
X107814762Y-101385796D01*
X107769427Y-101323398D01*
X107761364Y-101246693D01*
X107792734Y-101176232D01*
X107855132Y-101130897D01*
X107885223Y-101122834D01*
X107885362Y-101122811D01*
X107889409Y-101122171D01*
X108061639Y-101066211D01*
X108222994Y-100983996D01*
X108369501Y-100877553D01*
X108497553Y-100749501D01*
X108603996Y-100602994D01*
X108686211Y-100441639D01*
X108742171Y-100269409D01*
X108770500Y-100090546D01*
X108770500Y-99909454D01*
X108742171Y-99730591D01*
X108686211Y-99558361D01*
X108603996Y-99397006D01*
X108497553Y-99250499D01*
X108369501Y-99122447D01*
X108222994Y-99016004D01*
X108061639Y-98933789D01*
X107889408Y-98877828D01*
X107885223Y-98877166D01*
X107814762Y-98845796D01*
X107769427Y-98783398D01*
X107761364Y-98706693D01*
X107792734Y-98636232D01*
X107855132Y-98590897D01*
X107885223Y-98582834D01*
X107885362Y-98582811D01*
X107889409Y-98582171D01*
X108061639Y-98526211D01*
X108222994Y-98443996D01*
X108369501Y-98337553D01*
X108497553Y-98209501D01*
X108603996Y-98062994D01*
X108686211Y-97901639D01*
X108742171Y-97729409D01*
X108770500Y-97550546D01*
X108770500Y-97369454D01*
X108742171Y-97190591D01*
X108686211Y-97018361D01*
X108603996Y-96857006D01*
X108497553Y-96710499D01*
X108369501Y-96582447D01*
X108222994Y-96476004D01*
X108061639Y-96393789D01*
X108061627Y-96393785D01*
X107889408Y-96337828D01*
X107885223Y-96337166D01*
X107814762Y-96305796D01*
X107769427Y-96243398D01*
X107761364Y-96166693D01*
X107792734Y-96096232D01*
X107855132Y-96050897D01*
X107885223Y-96042834D01*
X107885362Y-96042811D01*
X107889409Y-96042171D01*
X108061639Y-95986211D01*
X108222994Y-95903996D01*
X108369501Y-95797553D01*
X108497553Y-95669501D01*
X108603996Y-95522994D01*
X108686211Y-95361639D01*
X108742171Y-95189409D01*
X108770500Y-95010546D01*
X108770500Y-94829454D01*
X108742171Y-94650591D01*
X108686211Y-94478361D01*
X108603996Y-94317006D01*
X108497553Y-94170499D01*
X108369501Y-94042447D01*
X108222994Y-93936004D01*
X108061639Y-93853789D01*
X107889408Y-93797828D01*
X107885223Y-93797166D01*
X107814762Y-93765796D01*
X107769427Y-93703398D01*
X107761364Y-93626693D01*
X107792734Y-93556232D01*
X107855132Y-93510897D01*
X107885223Y-93502834D01*
X107885362Y-93502811D01*
X107889409Y-93502171D01*
X108061639Y-93446211D01*
X108222994Y-93363996D01*
X108369501Y-93257553D01*
X108497553Y-93129501D01*
X108603996Y-92982994D01*
X108686211Y-92821639D01*
X108742171Y-92649409D01*
X108770500Y-92470546D01*
X108770500Y-92289454D01*
X108742171Y-92110591D01*
X108686211Y-91938361D01*
X108603996Y-91777006D01*
X108497553Y-91630499D01*
X108369501Y-91502447D01*
X108222994Y-91396004D01*
X108061639Y-91313789D01*
X108061627Y-91313785D01*
X107950663Y-91277731D01*
X107885978Y-91235724D01*
X107850962Y-91167002D01*
X107854998Y-91089980D01*
X107897005Y-91025295D01*
X107950663Y-90994316D01*
X108080640Y-90952083D01*
X108248938Y-90866331D01*
X108248940Y-90866329D01*
X108274328Y-90847883D01*
X108274328Y-90847882D01*
X107749409Y-90322962D01*
X107812993Y-90305925D01*
X107927007Y-90240099D01*
X108020099Y-90147007D01*
X108085925Y-90032993D01*
X108102962Y-89969408D01*
X108627882Y-90494328D01*
X108627883Y-90494328D01*
X108646329Y-90468940D01*
X108646331Y-90468938D01*
X108732083Y-90300642D01*
X108790450Y-90121006D01*
X108790451Y-90121006D01*
X108820000Y-89934438D01*
X108820000Y-89745561D01*
X108790451Y-89558993D01*
X108732083Y-89379357D01*
X108646330Y-89211061D01*
X108646325Y-89211052D01*
X108627884Y-89185670D01*
X108627882Y-89185670D01*
X108102962Y-89710589D01*
X108085925Y-89647007D01*
X108020099Y-89532993D01*
X107927007Y-89439901D01*
X107812993Y-89374075D01*
X107749406Y-89357036D01*
X108274328Y-88832115D01*
X108248937Y-88813668D01*
X108089164Y-88732259D01*
X108031847Y-88680650D01*
X108008013Y-88607296D01*
X108024049Y-88531854D01*
X108075658Y-88474537D01*
X108149012Y-88450703D01*
X108156801Y-88450499D01*
X108514864Y-88450499D01*
X108514867Y-88450499D01*
X108529940Y-88448750D01*
X108539991Y-88447585D01*
X108642765Y-88402206D01*
X108722206Y-88322765D01*
X108767585Y-88219991D01*
X108770500Y-88194865D01*
X108770499Y-86405136D01*
X108767585Y-86380009D01*
X108722206Y-86277235D01*
X108642765Y-86197794D01*
X108642764Y-86197793D01*
X108539994Y-86152416D01*
X108539991Y-86152415D01*
X108539982Y-86152414D01*
X108514865Y-86149500D01*
X108514859Y-86149500D01*
X106725133Y-86149500D01*
X106700010Y-86152414D01*
X106700007Y-86152415D01*
X106597235Y-86197793D01*
X106517793Y-86277235D01*
X106472416Y-86380005D01*
X106472415Y-86380008D01*
X106472415Y-86380009D01*
X106469500Y-86405135D01*
X106469500Y-86405136D01*
X106469500Y-86405140D01*
X106469500Y-88194866D01*
X106472414Y-88219989D01*
X106472415Y-88219992D01*
X106517793Y-88322764D01*
X106517794Y-88322765D01*
X106597235Y-88402206D01*
X106700009Y-88447585D01*
X106725135Y-88450500D01*
X107083191Y-88450499D01*
X107157689Y-88470461D01*
X107212227Y-88524999D01*
X107232189Y-88599499D01*
X107212227Y-88673999D01*
X107157689Y-88728537D01*
X107150835Y-88732259D01*
X106991061Y-88813669D01*
X106965670Y-88832115D01*
X106965670Y-88832116D01*
X107490591Y-89357037D01*
X107427007Y-89374075D01*
X107312993Y-89439901D01*
X107219901Y-89532993D01*
X107154075Y-89647007D01*
X107137037Y-89710591D01*
X106612116Y-89185670D01*
X106612115Y-89185670D01*
X106593668Y-89211061D01*
X106593666Y-89211065D01*
X106507916Y-89379357D01*
X106449549Y-89558993D01*
X106449548Y-89558993D01*
X106420000Y-89745561D01*
X106420000Y-89934438D01*
X106449548Y-90121006D01*
X106507916Y-90300642D01*
X106593668Y-90468937D01*
X106612115Y-90494328D01*
X107137036Y-89969406D01*
X107154075Y-90032993D01*
X107219901Y-90147007D01*
X107312993Y-90240099D01*
X107427007Y-90305925D01*
X107490590Y-90322962D01*
X106965670Y-90847882D01*
X106965670Y-90847884D01*
X106991052Y-90866325D01*
X106991061Y-90866330D01*
X107159357Y-90952083D01*
X107289337Y-90994316D01*
X107354022Y-91036323D01*
X107389037Y-91105044D01*
X107385000Y-91182067D01*
X107342993Y-91246752D01*
X107289336Y-91277730D01*
X107178368Y-91313785D01*
X107178363Y-91313787D01*
X107017004Y-91396005D01*
X107017003Y-91396005D01*
X106870500Y-91502446D01*
X106870497Y-91502448D01*
X106742448Y-91630497D01*
X106742446Y-91630500D01*
X106636005Y-91777003D01*
X106636005Y-91777004D01*
X106553789Y-91938360D01*
X106553789Y-91938361D01*
X106497829Y-92110591D01*
X106469500Y-92289454D01*
X106469500Y-92470546D01*
X106485726Y-92572993D01*
X106497829Y-92649408D01*
X106516690Y-92707458D01*
X106520726Y-92784481D01*
X106485710Y-92853202D01*
X106421025Y-92895209D01*
X106344002Y-92899245D01*
X106275281Y-92864229D01*
X106271742Y-92860937D01*
X103229014Y-89937067D01*
X103226767Y-89933349D01*
X103223089Y-89931041D01*
X103210556Y-89906519D01*
X103189128Y-89871054D01*
X103187009Y-89862872D01*
X103186535Y-89860801D01*
X103173580Y-89795672D01*
X103120775Y-89668189D01*
X103044114Y-89553458D01*
X102946542Y-89455886D01*
X102922619Y-89439901D01*
X102831815Y-89379227D01*
X102831809Y-89379224D01*
X102704329Y-89326420D01*
X102704325Y-89326419D01*
X102568993Y-89299500D01*
X102431007Y-89299500D01*
X102431004Y-89299500D01*
X102423725Y-89300217D01*
X102423479Y-89297719D01*
X102358896Y-89293467D01*
X102335484Y-89283195D01*
X97690150Y-86749378D01*
X97641244Y-86706548D01*
X97630684Y-86692114D01*
X97620775Y-86668189D01*
X97544114Y-86553458D01*
X97446542Y-86455886D01*
X97446538Y-86455883D01*
X97331815Y-86379227D01*
X97331809Y-86379224D01*
X97204329Y-86326420D01*
X97204327Y-86326419D01*
X97160440Y-86317690D01*
X97091266Y-86283577D01*
X97079673Y-86272236D01*
X92913906Y-81727762D01*
X92233365Y-80985353D01*
X92197740Y-80916947D01*
X92197065Y-80913739D01*
X92173580Y-80795674D01*
X92173579Y-80795670D01*
X92120775Y-80668190D01*
X92120772Y-80668184D01*
X92044116Y-80553461D01*
X92044114Y-80553458D01*
X91946542Y-80455886D01*
X91946538Y-80455883D01*
X91831815Y-80379227D01*
X91831809Y-80379224D01*
X91704329Y-80326420D01*
X91704325Y-80326419D01*
X91568993Y-80299500D01*
X91431007Y-80299500D01*
X91295674Y-80326419D01*
X91295670Y-80326420D01*
X91168190Y-80379224D01*
X91168184Y-80379227D01*
X91053461Y-80455883D01*
X91053454Y-80455889D01*
X90955889Y-80553454D01*
X90955883Y-80553461D01*
X90879227Y-80668184D01*
X90879224Y-80668190D01*
X90826420Y-80795670D01*
X90826419Y-80795674D01*
X90799500Y-80931006D01*
X90799500Y-81068993D01*
X90826419Y-81204325D01*
X90826420Y-81204329D01*
X90879224Y-81331809D01*
X90879227Y-81331815D01*
X90955883Y-81446538D01*
X90955886Y-81446542D01*
X91053458Y-81544114D01*
X91053461Y-81544116D01*
X91168184Y-81620772D01*
X91168186Y-81620773D01*
X91168189Y-81620775D01*
X91295672Y-81673580D01*
X91339558Y-81682309D01*
X91408729Y-81716419D01*
X91420324Y-81727761D01*
X95984212Y-86706548D01*
X96266633Y-87014643D01*
X96302259Y-87083050D01*
X96302934Y-87086257D01*
X96326419Y-87204327D01*
X96326420Y-87204329D01*
X96379224Y-87331809D01*
X96379227Y-87331815D01*
X96455883Y-87446538D01*
X96455886Y-87446542D01*
X96553458Y-87544114D01*
X96553461Y-87544116D01*
X96668184Y-87620772D01*
X96668186Y-87620773D01*
X96668189Y-87620775D01*
X96795672Y-87673580D01*
X96931007Y-87700500D01*
X97068990Y-87700500D01*
X97068993Y-87700500D01*
X97068995Y-87700499D01*
X97076281Y-87699782D01*
X97076528Y-87702294D01*
X97141022Y-87706504D01*
X97164512Y-87716802D01*
X100975776Y-89795672D01*
X101809849Y-90250621D01*
X101865693Y-90303820D01*
X101876157Y-90324405D01*
X101879224Y-90331810D01*
X101879227Y-90331815D01*
X101955883Y-90446538D01*
X101955886Y-90446542D01*
X102053458Y-90544114D01*
X102053461Y-90544116D01*
X102168184Y-90620772D01*
X102168186Y-90620773D01*
X102168189Y-90620775D01*
X102295672Y-90673580D01*
X102295675Y-90673581D01*
X102339482Y-90682294D01*
X102392627Y-90692865D01*
X102461801Y-90726977D01*
X102466795Y-90731562D01*
X104113740Y-92314174D01*
X106447981Y-94557234D01*
X106487867Y-94623247D01*
X106491907Y-94687978D01*
X106485726Y-94727007D01*
X106469500Y-94829454D01*
X106469500Y-95010546D01*
X106485726Y-95112993D01*
X106497829Y-95189408D01*
X106553789Y-95361639D01*
X106636005Y-95522995D01*
X106636005Y-95522996D01*
X106673300Y-95574328D01*
X106742447Y-95669501D01*
X106870499Y-95797553D01*
X107017006Y-95903996D01*
X107178361Y-95986211D01*
X107350591Y-96042171D01*
X107350592Y-96042171D01*
X107350595Y-96042172D01*
X107354779Y-96042835D01*
X107425238Y-96074206D01*
X107470573Y-96136604D01*
X107478634Y-96213310D01*
X107447263Y-96283769D01*
X107384865Y-96329104D01*
X107354779Y-96337165D01*
X107350595Y-96337827D01*
X107178360Y-96393789D01*
X107017004Y-96476005D01*
X107017003Y-96476005D01*
X106870500Y-96582446D01*
X106870497Y-96582448D01*
X106742448Y-96710497D01*
X106742446Y-96710500D01*
X106636005Y-96857003D01*
X106636005Y-96857004D01*
X106553789Y-97018360D01*
X106553789Y-97018361D01*
X106497829Y-97190591D01*
X106469500Y-97369454D01*
X106469500Y-97550546D01*
X106497829Y-97729409D01*
X106553789Y-97901639D01*
X106636004Y-98062994D01*
X106742447Y-98209501D01*
X106870499Y-98337553D01*
X107017006Y-98443996D01*
X107178361Y-98526211D01*
X107350591Y-98582171D01*
X107350592Y-98582171D01*
X107350595Y-98582172D01*
X107354779Y-98582835D01*
X107425238Y-98614206D01*
X107470573Y-98676604D01*
X107478634Y-98753310D01*
X107447263Y-98823769D01*
X107384865Y-98869104D01*
X107354779Y-98877165D01*
X107350595Y-98877827D01*
X107178360Y-98933789D01*
X107017004Y-99016005D01*
X107017003Y-99016005D01*
X106870500Y-99122446D01*
X106870497Y-99122448D01*
X106742448Y-99250497D01*
X106742446Y-99250500D01*
X106636005Y-99397003D01*
X106636005Y-99397004D01*
X106553789Y-99558360D01*
X106553789Y-99558361D01*
X106497829Y-99730591D01*
X106469500Y-99909454D01*
X106469500Y-100090546D01*
X106497829Y-100269409D01*
X106553789Y-100441639D01*
X106636004Y-100602994D01*
X106742447Y-100749501D01*
X106870499Y-100877553D01*
X107017006Y-100983996D01*
X107178361Y-101066211D01*
X107350591Y-101122171D01*
X107350592Y-101122171D01*
X107350595Y-101122172D01*
X107354779Y-101122835D01*
X107425238Y-101154206D01*
X107470573Y-101216604D01*
X107478634Y-101293310D01*
X107447263Y-101363769D01*
X107384865Y-101409104D01*
X107354779Y-101417165D01*
X107350595Y-101417827D01*
X107178360Y-101473789D01*
X107017004Y-101556005D01*
X107017003Y-101556005D01*
X106870500Y-101662446D01*
X106870497Y-101662448D01*
X106742448Y-101790497D01*
X106742446Y-101790500D01*
X106636005Y-101937003D01*
X106636005Y-101937004D01*
X106553789Y-102098360D01*
X106553789Y-102098361D01*
X106497829Y-102270591D01*
X106469500Y-102449454D01*
X106469500Y-102630546D01*
X106497829Y-102809409D01*
X106553789Y-102981639D01*
X106636004Y-103142994D01*
X106742447Y-103289501D01*
X106870499Y-103417553D01*
X107017006Y-103523996D01*
X107178361Y-103606211D01*
X107350591Y-103662171D01*
X107350592Y-103662171D01*
X107350595Y-103662172D01*
X107354779Y-103662835D01*
X107425238Y-103694206D01*
X107470573Y-103756604D01*
X107478634Y-103833310D01*
X107447263Y-103903769D01*
X107384865Y-103949104D01*
X107354779Y-103957165D01*
X107350595Y-103957827D01*
X107178360Y-104013789D01*
X107017004Y-104096005D01*
X107017003Y-104096005D01*
X106870500Y-104202446D01*
X106870497Y-104202448D01*
X106742448Y-104330497D01*
X106742446Y-104330500D01*
X106636005Y-104477003D01*
X106636005Y-104477004D01*
X106553789Y-104638360D01*
X106553789Y-104638361D01*
X106497829Y-104810591D01*
X106469500Y-104989454D01*
X106469500Y-105170546D01*
X106497829Y-105349409D01*
X106553789Y-105521639D01*
X106636004Y-105682994D01*
X106742447Y-105829501D01*
X106870499Y-105957553D01*
X107017006Y-106063996D01*
X107178361Y-106146211D01*
X107350591Y-106202171D01*
X107350592Y-106202171D01*
X107350595Y-106202172D01*
X107354779Y-106202835D01*
X107425238Y-106234206D01*
X107470573Y-106296604D01*
X107478634Y-106373310D01*
X107447263Y-106443769D01*
X107384865Y-106489104D01*
X107354779Y-106497165D01*
X107350595Y-106497827D01*
X107178360Y-106553789D01*
X107017004Y-106636005D01*
X107017003Y-106636005D01*
X106870500Y-106742446D01*
X106870497Y-106742448D01*
X106742448Y-106870497D01*
X106742446Y-106870500D01*
X106636005Y-107017003D01*
X106636005Y-107017004D01*
X106553789Y-107178360D01*
X106553789Y-107178361D01*
X106497829Y-107350591D01*
X106469500Y-107529454D01*
X106469500Y-107710546D01*
X106497829Y-107889409D01*
X106553789Y-108061639D01*
X106636004Y-108222994D01*
X106742447Y-108369501D01*
X106870499Y-108497553D01*
X107017006Y-108603996D01*
X107178361Y-108686211D01*
X107350591Y-108742171D01*
X107350592Y-108742171D01*
X107350595Y-108742172D01*
X107354779Y-108742835D01*
X107425238Y-108774206D01*
X107470573Y-108836604D01*
X107478634Y-108913310D01*
X107447263Y-108983769D01*
X107384865Y-109029104D01*
X107354779Y-109037165D01*
X107350595Y-109037827D01*
X107178360Y-109093789D01*
X107017004Y-109176005D01*
X107017003Y-109176005D01*
X106870500Y-109282446D01*
X106870497Y-109282448D01*
X106742448Y-109410497D01*
X106742446Y-109410500D01*
X106636005Y-109557003D01*
X106636005Y-109557004D01*
X106553789Y-109718360D01*
X106553789Y-109718361D01*
X106497829Y-109890591D01*
X106469500Y-110069454D01*
X106469500Y-110250546D01*
X106497829Y-110429409D01*
X106553789Y-110601639D01*
X106636004Y-110762994D01*
X106742447Y-110909501D01*
X106870499Y-111037553D01*
X107017006Y-111143996D01*
X107178361Y-111226211D01*
X107350591Y-111282171D01*
X107350592Y-111282171D01*
X107350595Y-111282172D01*
X107354779Y-111282835D01*
X107425238Y-111314206D01*
X107470573Y-111376604D01*
X107478634Y-111453310D01*
X107447263Y-111523769D01*
X107384865Y-111569104D01*
X107354779Y-111577165D01*
X107350595Y-111577827D01*
X107178360Y-111633789D01*
X107017004Y-111716005D01*
X107017003Y-111716005D01*
X106870500Y-111822446D01*
X106870497Y-111822448D01*
X106742448Y-111950497D01*
X106742446Y-111950500D01*
X106636005Y-112097003D01*
X106636005Y-112097004D01*
X106574280Y-112218145D01*
X106522671Y-112275462D01*
X106449317Y-112299296D01*
X106441520Y-112299500D01*
X106260454Y-112299500D01*
X106185954Y-112279538D01*
X106155095Y-112255859D01*
X106118716Y-112219480D01*
X106116404Y-112218145D01*
X105981784Y-112140423D01*
X105829057Y-112099500D01*
X105670943Y-112099500D01*
X105518216Y-112140423D01*
X105518214Y-112140423D01*
X105518214Y-112140424D01*
X105381283Y-112219480D01*
X105269480Y-112331283D01*
X105190424Y-112468214D01*
X105149500Y-112620941D01*
X105149500Y-112620943D01*
X105149500Y-112779057D01*
X105190423Y-112931784D01*
X105269480Y-113068716D01*
X105381284Y-113180520D01*
X105518216Y-113259577D01*
X105670943Y-113300500D01*
X105829057Y-113300500D01*
X105981784Y-113259577D01*
X106118716Y-113180520D01*
X106155095Y-113144141D01*
X106221890Y-113105577D01*
X106260454Y-113100500D01*
X106441520Y-113100500D01*
X106516020Y-113120462D01*
X106570558Y-113175000D01*
X106574280Y-113181855D01*
X106636004Y-113302994D01*
X106742447Y-113449501D01*
X106870499Y-113577553D01*
X107017006Y-113683996D01*
X107178361Y-113766211D01*
X107350591Y-113822171D01*
X107350592Y-113822171D01*
X107350595Y-113822172D01*
X107354779Y-113822835D01*
X107425238Y-113854206D01*
X107470573Y-113916604D01*
X107478634Y-113993310D01*
X107447263Y-114063769D01*
X107384865Y-114109104D01*
X107354779Y-114117165D01*
X107350595Y-114117827D01*
X107178360Y-114173789D01*
X107017004Y-114256005D01*
X107017003Y-114256005D01*
X106870500Y-114362446D01*
X106870497Y-114362448D01*
X106742448Y-114490497D01*
X106742446Y-114490500D01*
X106634860Y-114638580D01*
X106574920Y-114687118D01*
X106514316Y-114700000D01*
X93485684Y-114700000D01*
X93411184Y-114680038D01*
X93365140Y-114638580D01*
X93301509Y-114551000D01*
X93257553Y-114490499D01*
X93129501Y-114362447D01*
X92982994Y-114256004D01*
X92821639Y-114173789D01*
X92649408Y-114117828D01*
X92645223Y-114117166D01*
X92574762Y-114085796D01*
X92529427Y-114023398D01*
X92521364Y-113946693D01*
X92552734Y-113876232D01*
X92615132Y-113830897D01*
X92645223Y-113822834D01*
X92645362Y-113822811D01*
X92649409Y-113822171D01*
X92821639Y-113766211D01*
X92982994Y-113683996D01*
X93129501Y-113577553D01*
X93257553Y-113449501D01*
X93363996Y-113302994D01*
X93446211Y-113141639D01*
X93502171Y-112969409D01*
X93530500Y-112790546D01*
X93530500Y-112609454D01*
X93502171Y-112430591D01*
X93446211Y-112258361D01*
X93363996Y-112097006D01*
X93257553Y-111950499D01*
X93129501Y-111822447D01*
X92982994Y-111716004D01*
X92821639Y-111633789D01*
X92649408Y-111577828D01*
X92645223Y-111577166D01*
X92574762Y-111545796D01*
X92529427Y-111483398D01*
X92521364Y-111406693D01*
X92552734Y-111336232D01*
X92615132Y-111290897D01*
X92645223Y-111282834D01*
X92645362Y-111282811D01*
X92649409Y-111282171D01*
X92821639Y-111226211D01*
X92982994Y-111143996D01*
X93129501Y-111037553D01*
X93257553Y-110909501D01*
X93363996Y-110762994D01*
X93446211Y-110601639D01*
X93502171Y-110429409D01*
X93530500Y-110250546D01*
X93530500Y-110069454D01*
X93502171Y-109890591D01*
X93446211Y-109718361D01*
X93363996Y-109557006D01*
X93257553Y-109410499D01*
X93129501Y-109282447D01*
X92982994Y-109176004D01*
X92821639Y-109093789D01*
X92649408Y-109037828D01*
X92645223Y-109037166D01*
X92574762Y-109005796D01*
X92529427Y-108943398D01*
X92521364Y-108866693D01*
X92552734Y-108796232D01*
X92615132Y-108750897D01*
X92645223Y-108742834D01*
X92645362Y-108742811D01*
X92649409Y-108742171D01*
X92821639Y-108686211D01*
X92982994Y-108603996D01*
X93129501Y-108497553D01*
X93257553Y-108369501D01*
X93363996Y-108222994D01*
X93446211Y-108061639D01*
X93502171Y-107889409D01*
X93530500Y-107710546D01*
X93530500Y-107529454D01*
X93502171Y-107350591D01*
X93446211Y-107178361D01*
X93363996Y-107017006D01*
X93257553Y-106870499D01*
X93129501Y-106742447D01*
X92982994Y-106636004D01*
X92821639Y-106553789D01*
X92649408Y-106497828D01*
X92645223Y-106497166D01*
X92574762Y-106465796D01*
X92529427Y-106403398D01*
X92521364Y-106326693D01*
X92552734Y-106256232D01*
X92615132Y-106210897D01*
X92645223Y-106202834D01*
X92645362Y-106202811D01*
X92649409Y-106202171D01*
X92821639Y-106146211D01*
X92982994Y-106063996D01*
X93129501Y-105957553D01*
X93257553Y-105829501D01*
X93363996Y-105682994D01*
X93446211Y-105521639D01*
X93502171Y-105349409D01*
X93530500Y-105170546D01*
X93530500Y-104989454D01*
X93502171Y-104810591D01*
X93446211Y-104638361D01*
X93363996Y-104477006D01*
X93257553Y-104330499D01*
X93129501Y-104202447D01*
X92982994Y-104096004D01*
X92821639Y-104013789D01*
X92649408Y-103957828D01*
X92645223Y-103957166D01*
X92574762Y-103925796D01*
X92529427Y-103863398D01*
X92521364Y-103786693D01*
X92552734Y-103716232D01*
X92615132Y-103670897D01*
X92645223Y-103662834D01*
X92645362Y-103662811D01*
X92649409Y-103662171D01*
X92821639Y-103606211D01*
X92982994Y-103523996D01*
X93129501Y-103417553D01*
X93257553Y-103289501D01*
X93363996Y-103142994D01*
X93446211Y-102981639D01*
X93502171Y-102809409D01*
X93530500Y-102630546D01*
X93530500Y-102449454D01*
X93502171Y-102270591D01*
X93446211Y-102098361D01*
X93363996Y-101937006D01*
X93257553Y-101790499D01*
X93129501Y-101662447D01*
X92982994Y-101556004D01*
X92821639Y-101473789D01*
X92649408Y-101417828D01*
X92645223Y-101417166D01*
X92574762Y-101385796D01*
X92529427Y-101323398D01*
X92521364Y-101246693D01*
X92552734Y-101176232D01*
X92615132Y-101130897D01*
X92645223Y-101122834D01*
X92645362Y-101122811D01*
X92649409Y-101122171D01*
X92821639Y-101066211D01*
X92982994Y-100983996D01*
X93129501Y-100877553D01*
X93257553Y-100749501D01*
X93363996Y-100602994D01*
X93446211Y-100441639D01*
X93502171Y-100269409D01*
X93530500Y-100090546D01*
X93530500Y-99909454D01*
X93502171Y-99730591D01*
X93446211Y-99558361D01*
X93363996Y-99397006D01*
X93257553Y-99250499D01*
X93129501Y-99122447D01*
X92982994Y-99016004D01*
X92821639Y-98933789D01*
X92649408Y-98877828D01*
X92645223Y-98877166D01*
X92574762Y-98845796D01*
X92529427Y-98783398D01*
X92521364Y-98706693D01*
X92552734Y-98636232D01*
X92615132Y-98590897D01*
X92645223Y-98582834D01*
X92645362Y-98582811D01*
X92649409Y-98582171D01*
X92821639Y-98526211D01*
X92982994Y-98443996D01*
X93129501Y-98337553D01*
X93257553Y-98209501D01*
X93363996Y-98062994D01*
X93446211Y-97901639D01*
X93502171Y-97729409D01*
X93530500Y-97550546D01*
X93530500Y-97369454D01*
X93502171Y-97190591D01*
X93446211Y-97018361D01*
X93363996Y-96857006D01*
X93257553Y-96710499D01*
X93129501Y-96582447D01*
X92982994Y-96476004D01*
X92821639Y-96393789D01*
X92821627Y-96393785D01*
X92710663Y-96357731D01*
X92645978Y-96315724D01*
X92610962Y-96247002D01*
X92614998Y-96169980D01*
X92657005Y-96105295D01*
X92710663Y-96074316D01*
X92840640Y-96032083D01*
X93008938Y-95946331D01*
X93008940Y-95946329D01*
X93034328Y-95927883D01*
X93034328Y-95927882D01*
X92509409Y-95402962D01*
X92572993Y-95385925D01*
X92687007Y-95320099D01*
X92780099Y-95227007D01*
X92845925Y-95112993D01*
X92862962Y-95049408D01*
X93387882Y-95574328D01*
X93387883Y-95574328D01*
X93406329Y-95548940D01*
X93406331Y-95548938D01*
X93492083Y-95380642D01*
X93550450Y-95201006D01*
X93550451Y-95201006D01*
X93580000Y-95014438D01*
X93580000Y-94825561D01*
X93550451Y-94638993D01*
X93492083Y-94459357D01*
X93406330Y-94291061D01*
X93406325Y-94291052D01*
X93387884Y-94265670D01*
X93387882Y-94265670D01*
X92862962Y-94790589D01*
X92845925Y-94727007D01*
X92780099Y-94612993D01*
X92687007Y-94519901D01*
X92572993Y-94454075D01*
X92509406Y-94437036D01*
X93034328Y-93912115D01*
X93008937Y-93893668D01*
X92840640Y-93807916D01*
X92790754Y-93791707D01*
X92726069Y-93749701D01*
X92691053Y-93680979D01*
X92695090Y-93603957D01*
X92737096Y-93539272D01*
X92790754Y-93508293D01*
X92840640Y-93492083D01*
X93008938Y-93406331D01*
X93008940Y-93406329D01*
X93034328Y-93387883D01*
X93034328Y-93387882D01*
X92509409Y-92862962D01*
X92572993Y-92845925D01*
X92687007Y-92780099D01*
X92780099Y-92687007D01*
X92845925Y-92572993D01*
X92862962Y-92509408D01*
X93387882Y-93034328D01*
X93387883Y-93034328D01*
X93406329Y-93008940D01*
X93406331Y-93008938D01*
X93492083Y-92840642D01*
X93550450Y-92661006D01*
X93550451Y-92661006D01*
X93580000Y-92474438D01*
X93580000Y-92285561D01*
X93550451Y-92098993D01*
X93492083Y-91919357D01*
X93406330Y-91751061D01*
X93406325Y-91751052D01*
X93387884Y-91725670D01*
X93387882Y-91725670D01*
X92862962Y-92250589D01*
X92845925Y-92187007D01*
X92780099Y-92072993D01*
X92687007Y-91979901D01*
X92572993Y-91914075D01*
X92509406Y-91897036D01*
X93034328Y-91372115D01*
X93008937Y-91353668D01*
X92840642Y-91267916D01*
X92710662Y-91225683D01*
X92645977Y-91183676D01*
X92610962Y-91114954D01*
X92614999Y-91037932D01*
X92657006Y-90973247D01*
X92710662Y-90942268D01*
X92821639Y-90906211D01*
X92982994Y-90823996D01*
X93129501Y-90717553D01*
X93257553Y-90589501D01*
X93363996Y-90442994D01*
X93446211Y-90281639D01*
X93502171Y-90109409D01*
X93530500Y-89930546D01*
X93530500Y-89749454D01*
X93502171Y-89570591D01*
X93446211Y-89398361D01*
X93363996Y-89237006D01*
X93257553Y-89090499D01*
X93129501Y-88962447D01*
X92982994Y-88856004D01*
X92821639Y-88773789D01*
X92821630Y-88773786D01*
X92721361Y-88741207D01*
X92656676Y-88699200D01*
X92621660Y-88630478D01*
X92625696Y-88553456D01*
X92667703Y-88488771D01*
X92736425Y-88453755D01*
X92767401Y-88450499D01*
X93274864Y-88450499D01*
X93274867Y-88450499D01*
X93289940Y-88448750D01*
X93299991Y-88447585D01*
X93402765Y-88402206D01*
X93482206Y-88322765D01*
X93527585Y-88219991D01*
X93530500Y-88194865D01*
X93530499Y-86405136D01*
X93527585Y-86380009D01*
X93482206Y-86277235D01*
X93402765Y-86197794D01*
X93402764Y-86197793D01*
X93299994Y-86152416D01*
X93299991Y-86152415D01*
X93299982Y-86152414D01*
X93274865Y-86149500D01*
X93274859Y-86149500D01*
X91485133Y-86149500D01*
X91460010Y-86152414D01*
X91460007Y-86152415D01*
X91357235Y-86197793D01*
X91277793Y-86277235D01*
X91232416Y-86380005D01*
X91232415Y-86380008D01*
X91232415Y-86380009D01*
X91229500Y-86405135D01*
X91229500Y-86405136D01*
X91229500Y-86405140D01*
X91229500Y-88194866D01*
X91232414Y-88219989D01*
X91232415Y-88219992D01*
X91277793Y-88322764D01*
X91277794Y-88322765D01*
X91357235Y-88402206D01*
X91460009Y-88447585D01*
X91485135Y-88450500D01*
X91992596Y-88450499D01*
X92067094Y-88470461D01*
X92121632Y-88524999D01*
X92141594Y-88599499D01*
X92121632Y-88673999D01*
X92067094Y-88728537D01*
X92038638Y-88741206D01*
X91938364Y-88773786D01*
X91938363Y-88773787D01*
X91777004Y-88856005D01*
X91777003Y-88856005D01*
X91630500Y-88962446D01*
X91630497Y-88962448D01*
X91502448Y-89090497D01*
X91502446Y-89090500D01*
X91396005Y-89237003D01*
X91396005Y-89237004D01*
X91313789Y-89398360D01*
X91313789Y-89398361D01*
X91257829Y-89570591D01*
X91229500Y-89749454D01*
X91229500Y-89930546D01*
X91230533Y-89937067D01*
X91257829Y-90109408D01*
X91313789Y-90281639D01*
X91396005Y-90442995D01*
X91396005Y-90442996D01*
X91433300Y-90494328D01*
X91502447Y-90589501D01*
X91630499Y-90717553D01*
X91777006Y-90823996D01*
X91938361Y-90906211D01*
X92049335Y-90942268D01*
X92114021Y-90984275D01*
X92149037Y-91052996D01*
X92145001Y-91130018D01*
X92102994Y-91194704D01*
X92049338Y-91225683D01*
X91919355Y-91267917D01*
X91751065Y-91353666D01*
X91751061Y-91353668D01*
X91725670Y-91372115D01*
X91725670Y-91372116D01*
X92250591Y-91897037D01*
X92187007Y-91914075D01*
X92072993Y-91979901D01*
X91979901Y-92072993D01*
X91914075Y-92187007D01*
X91897037Y-92250591D01*
X91372116Y-91725670D01*
X91372115Y-91725670D01*
X91353668Y-91751061D01*
X91353666Y-91751065D01*
X91267916Y-91919357D01*
X91209549Y-92098993D01*
X91209548Y-92098993D01*
X91180000Y-92285561D01*
X91180000Y-92474438D01*
X91209548Y-92661006D01*
X91267916Y-92840642D01*
X91353668Y-93008937D01*
X91372115Y-93034328D01*
X91897036Y-92509406D01*
X91914075Y-92572993D01*
X91979901Y-92687007D01*
X92072993Y-92780099D01*
X92187007Y-92845925D01*
X92250590Y-92862962D01*
X91725670Y-93387882D01*
X91725670Y-93387884D01*
X91751052Y-93406325D01*
X91751061Y-93406330D01*
X91919357Y-93492083D01*
X91969246Y-93508293D01*
X92033931Y-93550300D01*
X92068946Y-93619022D01*
X92064909Y-93696044D01*
X92022902Y-93760729D01*
X91969246Y-93791707D01*
X91919357Y-93807916D01*
X91751065Y-93893666D01*
X91751061Y-93893668D01*
X91725670Y-93912115D01*
X91725670Y-93912116D01*
X92250591Y-94437037D01*
X92187007Y-94454075D01*
X92072993Y-94519901D01*
X91979901Y-94612993D01*
X91914075Y-94727007D01*
X91897037Y-94790591D01*
X91372116Y-94265670D01*
X91372115Y-94265670D01*
X91353668Y-94291061D01*
X91353666Y-94291065D01*
X91267916Y-94459357D01*
X91209549Y-94638993D01*
X91209548Y-94638993D01*
X91180000Y-94825561D01*
X91180000Y-95014438D01*
X91209548Y-95201006D01*
X91267916Y-95380642D01*
X91353668Y-95548937D01*
X91372115Y-95574328D01*
X91897036Y-95049406D01*
X91914075Y-95112993D01*
X91979901Y-95227007D01*
X92072993Y-95320099D01*
X92187007Y-95385925D01*
X92250590Y-95402962D01*
X91725670Y-95927882D01*
X91725670Y-95927884D01*
X91751052Y-95946325D01*
X91751061Y-95946330D01*
X91919357Y-96032083D01*
X92049337Y-96074316D01*
X92114022Y-96116323D01*
X92149037Y-96185044D01*
X92145000Y-96262067D01*
X92102993Y-96326752D01*
X92049336Y-96357730D01*
X91938368Y-96393785D01*
X91938363Y-96393787D01*
X91777004Y-96476005D01*
X91777003Y-96476005D01*
X91630500Y-96582446D01*
X91630497Y-96582448D01*
X91502448Y-96710497D01*
X91502446Y-96710500D01*
X91396005Y-96857003D01*
X91396005Y-96857004D01*
X91313789Y-97018360D01*
X91313789Y-97018361D01*
X91257829Y-97190591D01*
X91229500Y-97369454D01*
X91229500Y-97550546D01*
X91257829Y-97729409D01*
X91313789Y-97901639D01*
X91396004Y-98062994D01*
X91502447Y-98209501D01*
X91630499Y-98337553D01*
X91777006Y-98443996D01*
X91938361Y-98526211D01*
X92110591Y-98582171D01*
X92110592Y-98582171D01*
X92110595Y-98582172D01*
X92114779Y-98582835D01*
X92185238Y-98614206D01*
X92230573Y-98676604D01*
X92238634Y-98753310D01*
X92207263Y-98823769D01*
X92144865Y-98869104D01*
X92114779Y-98877165D01*
X92110595Y-98877827D01*
X91938360Y-98933789D01*
X91777004Y-99016005D01*
X91777003Y-99016005D01*
X91630500Y-99122446D01*
X91630497Y-99122448D01*
X91502448Y-99250497D01*
X91502446Y-99250500D01*
X91396005Y-99397003D01*
X91396005Y-99397004D01*
X91313789Y-99558360D01*
X91313789Y-99558361D01*
X91257829Y-99730591D01*
X91229500Y-99909454D01*
X91229500Y-100090546D01*
X91257829Y-100269409D01*
X91313789Y-100441639D01*
X91396004Y-100602994D01*
X91502447Y-100749501D01*
X91630499Y-100877553D01*
X91777006Y-100983996D01*
X91938361Y-101066211D01*
X92110591Y-101122171D01*
X92110592Y-101122171D01*
X92110595Y-101122172D01*
X92114779Y-101122835D01*
X92185238Y-101154206D01*
X92230573Y-101216604D01*
X92238634Y-101293310D01*
X92207263Y-101363769D01*
X92144865Y-101409104D01*
X92114779Y-101417165D01*
X92110595Y-101417827D01*
X91938360Y-101473789D01*
X91777004Y-101556005D01*
X91777003Y-101556005D01*
X91630500Y-101662446D01*
X91630497Y-101662448D01*
X91502448Y-101790497D01*
X91502446Y-101790500D01*
X91396005Y-101937003D01*
X91396005Y-101937004D01*
X91313789Y-102098360D01*
X91313789Y-102098361D01*
X91257829Y-102270591D01*
X91229500Y-102449454D01*
X91229500Y-102630546D01*
X91257829Y-102809409D01*
X91313789Y-102981639D01*
X91396004Y-103142994D01*
X91502447Y-103289501D01*
X91630499Y-103417553D01*
X91777006Y-103523996D01*
X91938361Y-103606211D01*
X92110591Y-103662171D01*
X92110592Y-103662171D01*
X92110595Y-103662172D01*
X92114779Y-103662835D01*
X92185238Y-103694206D01*
X92230573Y-103756604D01*
X92238634Y-103833310D01*
X92207263Y-103903769D01*
X92144865Y-103949104D01*
X92114779Y-103957165D01*
X92110595Y-103957827D01*
X91938360Y-104013789D01*
X91777004Y-104096005D01*
X91777003Y-104096005D01*
X91630500Y-104202446D01*
X91630497Y-104202448D01*
X91502448Y-104330497D01*
X91502446Y-104330500D01*
X91396005Y-104477003D01*
X91396005Y-104477004D01*
X91313789Y-104638360D01*
X91313789Y-104638361D01*
X91257829Y-104810591D01*
X91229500Y-104989454D01*
X91229500Y-105170546D01*
X91257829Y-105349409D01*
X91313789Y-105521639D01*
X91396004Y-105682994D01*
X91502447Y-105829501D01*
X91630499Y-105957553D01*
X91777006Y-106063996D01*
X91938361Y-106146211D01*
X92110591Y-106202171D01*
X92110592Y-106202171D01*
X92110595Y-106202172D01*
X92114779Y-106202835D01*
X92185238Y-106234206D01*
X92230573Y-106296604D01*
X92238634Y-106373310D01*
X92207263Y-106443769D01*
X92144865Y-106489104D01*
X92114779Y-106497165D01*
X92110595Y-106497827D01*
X91938360Y-106553789D01*
X91777004Y-106636005D01*
X91777003Y-106636005D01*
X91630500Y-106742446D01*
X91630497Y-106742448D01*
X91502448Y-106870497D01*
X91502446Y-106870500D01*
X91396005Y-107017003D01*
X91396005Y-107017004D01*
X91313789Y-107178360D01*
X91313789Y-107178361D01*
X91257829Y-107350591D01*
X91229500Y-107529454D01*
X91229500Y-107710546D01*
X91257829Y-107889409D01*
X91313789Y-108061639D01*
X91396004Y-108222994D01*
X91502447Y-108369501D01*
X91630499Y-108497553D01*
X91777006Y-108603996D01*
X91938361Y-108686211D01*
X92110591Y-108742171D01*
X92110592Y-108742171D01*
X92110595Y-108742172D01*
X92114779Y-108742835D01*
X92185238Y-108774206D01*
X92230573Y-108836604D01*
X92238634Y-108913310D01*
X92207263Y-108983769D01*
X92144865Y-109029104D01*
X92114779Y-109037165D01*
X92110595Y-109037827D01*
X91938360Y-109093789D01*
X91777004Y-109176005D01*
X91777003Y-109176005D01*
X91630500Y-109282446D01*
X91630497Y-109282448D01*
X91502448Y-109410497D01*
X91502446Y-109410500D01*
X91396005Y-109557003D01*
X91396005Y-109557004D01*
X91313789Y-109718360D01*
X91313789Y-109718361D01*
X91257829Y-109890591D01*
X91229500Y-110069454D01*
X91229500Y-110250546D01*
X91257829Y-110429409D01*
X91313789Y-110601639D01*
X91396004Y-110762994D01*
X91502447Y-110909501D01*
X91630499Y-111037553D01*
X91777006Y-111143996D01*
X91938361Y-111226211D01*
X92110591Y-111282171D01*
X92110592Y-111282171D01*
X92110595Y-111282172D01*
X92114779Y-111282835D01*
X92185238Y-111314206D01*
X92230573Y-111376604D01*
X92238634Y-111453310D01*
X92207263Y-111523769D01*
X92144865Y-111569104D01*
X92114779Y-111577165D01*
X92110595Y-111577827D01*
X91938360Y-111633789D01*
X91777004Y-111716005D01*
X91777003Y-111716005D01*
X91630500Y-111822446D01*
X91630497Y-111822448D01*
X91502448Y-111950497D01*
X91502446Y-111950500D01*
X91396005Y-112097003D01*
X91396005Y-112097004D01*
X91313789Y-112258360D01*
X91290095Y-112331284D01*
X91257829Y-112430591D01*
X91229500Y-112609454D01*
X91229500Y-112790546D01*
X91257829Y-112969409D01*
X91313789Y-113141639D01*
X91396004Y-113302994D01*
X91502447Y-113449501D01*
X91630499Y-113577553D01*
X91777006Y-113683996D01*
X91938361Y-113766211D01*
X92110591Y-113822171D01*
X92110592Y-113822171D01*
X92110595Y-113822172D01*
X92114779Y-113822835D01*
X92185238Y-113854206D01*
X92230573Y-113916604D01*
X92238634Y-113993310D01*
X92207263Y-114063769D01*
X92144865Y-114109104D01*
X92114779Y-114117165D01*
X92110595Y-114117827D01*
X91938360Y-114173789D01*
X91777004Y-114256005D01*
X91777003Y-114256005D01*
X91630500Y-114362446D01*
X91630497Y-114362448D01*
X91502448Y-114490497D01*
X91502446Y-114490500D01*
X91394860Y-114638580D01*
X91334920Y-114687118D01*
X91274316Y-114700000D01*
X90649000Y-114700000D01*
X90574500Y-114680038D01*
X90519962Y-114625500D01*
X90500000Y-114551000D01*
X90500000Y-77149000D01*
X90519962Y-77074500D01*
X90574500Y-77019962D01*
X90649000Y-77000000D01*
X109351000Y-77000000D01*
X109425500Y-77019962D01*
G37*
%TD.AperFunction*%
%TD*%
M02*
